<?xml version="1.0" encoding="utf-8"?>
<!-- Generator: Adobe Illustrator 22.0.0, SVG Export Plug-In . SVG Version: 6.00 Build 0)  -->
<svg version="1.1" id="Layer_1" xmlns="http://www.w3.org/2000/svg" xmlns:xlink="http://www.w3.org/1999/xlink" x="0px" y="0px"
	 viewBox="0 0 245 266.3" style="enable-background:new 0 0 245 266.3;" xml:space="preserve">
<style type="text/css">
	.st0{fill:#FFFFFF;}
	.st1{fill:#D1F8F0;}
	.st2{opacity:0.27;fill:#D1F8F0;}
	.st3{fill:#C7F9EF;}
	.st4{fill:#DFEBFD;}
	.st5{fill:#AFCDFB;}
	.st6{fill:#CDE0FB;}
	.st7{fill:#6BB7BF;}
	.st8{fill:#86D1CD;}
	.st9{fill:#F99746;}
	.st10{fill:#5685D8;}
	.st11{fill:#739AF0;}
	.st12{fill:#F1A34F;}
	.st13{fill:#FFA412;}
	.st14{fill:#FFB93E;}
	.st15{fill:#FA9712;}
	.st16{fill:#ED7D2B;}
	.st17{fill:#FFC261;}
	.st18{fill:#F69B34;}
	.st19{fill:#FFA15A;}
	.st20{fill:#F78639;}
	.st21{fill:#FFBE55;}
	.st22{fill:#233862;}
	.st23{fill:#FFB27D;}
	.st24{fill:#ED975D;}
	.st25{fill:#00787D;}
	.st26{fill:#014444;}
	.st27{fill:#B64C41;}
	.st28{fill:#2B478B;}
	.st29{fill:#007070;}
	.st30{fill:#88B3FF;}
	.st31{fill:#2E3552;}
	.st32{fill:url(#SVGID_1_);}
</style>
<title>paypal-seeklogo.com</title>
<path class="st0" d="M235.9,266.3H9.1c-5.1,0-9.1-4-9.1-9.1V9.1C0,4,4.1,0,9.1,0h226.7c5.1,0,9.1,4,9.1,9.1v248.1
	C245,262.3,240.9,266.3,235.9,266.3z"/>
<g>
	<g>
		<circle class="st1" cx="148.6" cy="69.3" r="53"/>
		<circle class="st2" cx="91.5" cy="66.6" r="53"/>
		<g>
			<g>
				<path class="st3" d="M28.4,160.3c0,0-24.3-26-4.1-54.3c17.9-25,38.7-23.3,54-13.2c6.5,4.3,25.3,0.5,41.3-24.9
					c21.8-34.7,97.4-13.7,83.6,39.8c-6.7,25.9,20.3,26.8,6.6,52.6L28.4,160.3z"/>
				<path class="st4" d="M225.2,125.8c-1.7-6.3-12.4-4.3-12.4-4.3s-7.2,11-9.3,11.3c-2.1,0.3,4.3-10.6,4.3-10.6
					c-4.1-0.4-14.5,4.6-14.5,4.6s0.7,12.9-1.4,12.6c-2.1-0.3,0-11.4,0-11.4c-3.9,1.2-7.6,5.8-7.6,5.8c-4.6,7.5,5.3,13,5.3,13
					s0.1,4.5-2.6,9.6l0,0c0,0-0.6,0.9-1.3,2.6h1.1c0.1-0.3,0.2-0.6,0.3-0.8c0,0,0,0,0,0c0,0,0,0,0,0c0.1-0.2,0.2-0.4,0.3-0.7
					c0,0,0,0,0,0c0,0,0,0,0,0c0.3-0.6,0.6-1.1,0.7-1.5c0,0,0,0,0,0c1-2,2.4-4.6,3.3-5.2c0,0-0.1-0.2-0.2-0.5
					c0.1,0.2,0.1,0.3,0.2,0.5c1.8,3.9,11,4.6,16.2,3.5c5.1-1.1,2.9-2.5,0.1-4.8c-2.8-2.3-8.5-1.7-10.3-2.6c-1.7-0.9,0.8-1.8,4.2-1.6
					c3.4,0.3,5.1,3.7,10.6,4.2c5.5,0.5,9.7-9.9,9.7-9.9c-3.8,1.2-10.6-0.9-10.9-2.2c-0.3-1.3,9.9-1.2,11.4-1.6
					C224.1,135.2,226.9,132.1,225.2,125.8z"/>
				<path class="st5" d="M80.1,127.5c0,0,0.5,3.7-0.2,3.8c-0.7,0-0.2-4.2-0.2-4.2s-3.3-1.9-4.7-1.8c0,0,1.9,3.7,1.2,3.6
					s-2.9-3.9-2.9-3.9s-3.5-0.9-4.2,1.2c-0.7,2.1,0.2,3.2,0.7,3.3c0.5,0.2,3.9,0.3,3.8,0.8c-0.1,0.4-2.4,1-3.7,0.5
					c0,0,1.2,3.5,3,3.5c1.8-0.1,2.5-1.2,3.6-1.2c1.1,0,1.9,0.3,1.4,0.6c-0.6,0.3-2.5-0.1-3.5,0.7c-1,0.7-1.7,1.2-0.1,1.6
					c1.7,0.5,4.7,0.4,5.4-0.8c0-0.1,0.1-0.1,0.1-0.2c0,0.1-0.1,0.2-0.1,0.2c0.3,0.2,0.7,1.1,1,1.8c0,0.1,0.1,0.3,0.2,0.5l0,0
					c0,0.1,0.1,0.2,0.1,0.2c0.5,1.5,0,4.1,0,4.1l0.4,0.1c1-2.6-0.3-4.8-0.3-4.8c-0.8-1.8-0.7-3.2-0.7-3.2s3.4-1.6,2-4.2
					C82.5,129.5,81.4,127.9,80.1,127.5z"/>
				<path class="st6" d="M54.8,144.2c-0.3-4.6,7.3-5.7,7.3-5.7s7.4,5.7,8.9,5.4c1.5-0.3-5.4-6.1-5.4-6.1c2.6-1.2,10.7-0.2,10.7-0.2
					s2.5,8.8,3.9,8.1s-2.6-7.7-2.6-7.7c2.9-0.1,6.4,2.1,6.4,2.1c4.8,4-0.5,9.9-0.5,9.9s0.9,3,4,5.8l0,0c0,0,0.6,0.5,1.4,1.4
					l-0.7,0.2c-0.1-0.2-0.3-0.3-0.4-0.5c0,0,0,0,0,0c0,0,0,0,0,0c-0.1-0.1-0.2-0.2-0.4-0.4c0,0,0,0,0,0c0,0,0,0,0,0
					c-0.4-0.4-0.6-0.6-0.8-0.8c0,0,0,0,0,0c-1.1-1.1-2.7-2.6-3.4-2.7c0,0,0-0.1,0-0.4c0,0.1,0,0.2,0,0.4c-0.3,3.1-6.3,5.6-10,6.1
					c-3.7,0.5-2.5-1-1.2-3.2c1.3-2.2,5.3-3.1,6.3-4.1c0.9-1-1-1.1-3.2-0.1c-2.2,1-2.6,3.6-6.2,5.3c-3.6,1.6-8.8-4.4-8.8-4.4
					c2.8-0.1,6.9-3.1,6.8-4s-6.9,1.5-8,1.6C57.7,150.3,55.1,148.8,54.8,144.2z"/>
				<g>
					<path class="st7" d="M197,61.3c0,0-0.8-0.6-1-1.5c-0.2-0.7,0.2-1.5,0.3-1.6l-1.1-0.2c0,0-0.3,1.4,0.2,2.4
						c0.2,0.3,0.6,0.7,1,0.8C196.7,61.4,197,61.3,197,61.3z"/>
					<path class="st8" d="M198.9,60.6l1,1.1c0,0-2.8,0.7-4.4-1.2C195.5,60.5,197.8,61.3,198.9,60.6z"/>
				</g>
				<g>
					<path class="st9" d="M148,46.5c0,0,1-1.7,2.8-0.6l1-1.1c0,0-1-0.7-3.2,0.8C147.2,46.5,148,46.5,148,46.5z"/>
					<path class="st9" d="M147,48.1c0,0-0.3-1.8,2.7-3.2c0,0-1.1,0.6-1.3,2.5L147,48.1z"/>
				</g>
				<g>
					<path class="st10" d="M86,100.7c0,0-1.6-0.6-1-2.4l-1.1-0.7c0,0-0.4,1,1.2,2.7C86.1,101.4,86,100.7,86,100.7z"/>
					<path class="st11" d="M87.6,101.3c0,0-1.6,0.6-3.2-1.9c0,0,0.7,0.9,2.4,0.8L87.6,101.3z"/>
				</g>
				<path class="st12" d="M90.7,77.8c0,0,0.9-0.6,1-1.3c0,0,0.9,0,1.1,0.3c0,0-0.4,1.1-0.9,1.4C91.9,78.3,90.8,78.3,90.7,77.8z"/>
				<path class="st12" d="M31,119.3c0,0-1-0.6-1.1-1.4c0,0-0.9,0.1-1.1,0.4c0,0,0.4,1.2,0.9,1.5C29.7,119.8,30.9,119.9,31,119.3z"/>
				<path class="st8" d="M139.7,65.3c0,0-1.4-0.9-1.5-1.9c0,0-1.3,0.1-1.6,0.5c0,0,0.6,1.7,1.3,2C137.9,65.9,139.5,66,139.7,65.3z"
					/>
				<g>
					<path class="st6" d="M222.9,61.3l8.4,26.4c0.4,1.2-0.3,2.4-1.4,2.8l-46.3,14.8c-1.2,0.4-2.4-0.3-2.8-1.4l-8.4-26.4
						c-0.4-1.2,0.3-2.4,1.4-2.8l46.3-14.8C221.3,59.5,222.5,60.1,222.9,61.3z"/>
					<g>
						<path class="st5" d="M196.3,94.8L184,98.7c-0.5,0.2-1.1-0.1-1.3-0.6l0-0.1c-0.2-0.5,0.1-1.1,0.6-1.3l12.3-3.9
							c0.5-0.2,1.1,0.1,1.3,0.6l0,0.1C197.1,94.1,196.8,94.6,196.3,94.8z"/>
						<path class="st5" d="M212.6,89.6l-12.3,3.9c-0.5,0.2-1.1-0.1-1.3-0.6l0-0.1c-0.2-0.5,0.1-1.1,0.6-1.3l12.3-3.9
							c0.5-0.2,1.1,0.1,1.3,0.6l0,0.1C213.4,88.9,213.1,89.4,212.6,89.6z"/>
						<g>
							<path class="st5" d="M197.9,80.7c0.1,0.4,0.2,0.8,0.1,1.2c-0.1,0.4-0.3,0.7-0.7,0.8c-0.4,0.1-0.8,0-1.1-0.3
								c-0.2-0.2-0.4-0.6-0.6-1c-0.1-0.4-0.2-0.8-0.1-1.2c0.1-0.4,0.3-0.7,0.7-0.8c0.4-0.1,0.8,0,1.1,0.3
								C197.5,79.9,197.7,80.2,197.9,80.7z M197.3,80.9c-0.1-0.3-0.2-0.5-0.3-0.7c-0.2-0.3-0.4-0.3-0.6-0.3
								c-0.2,0.1-0.3,0.3-0.4,0.6c0,0.2,0,0.5,0.1,0.7c0.2,0.8,0.6,1.1,1,1c0.2-0.1,0.3-0.3,0.3-0.6
								C197.5,81.4,197.4,81.2,197.3,80.9z"/>
							<path class="st5" d="M200.4,79.9c0.1,0.4,0.2,0.8,0.1,1.2c-0.1,0.4-0.3,0.7-0.7,0.8c-0.4,0.1-0.8,0-1.1-0.3
								c-0.2-0.2-0.4-0.6-0.6-1c-0.1-0.4-0.2-0.8-0.1-1.2c0.1-0.4,0.3-0.7,0.7-0.8c0.4-0.1,0.8,0,1.1,0.3
								C200.1,79.1,200.3,79.4,200.4,79.9z M199.8,80.1c-0.1-0.3-0.2-0.5-0.3-0.7c-0.2-0.3-0.4-0.3-0.6-0.3
								c-0.2,0.1-0.3,0.3-0.4,0.6c0,0.2,0,0.5,0.1,0.7c0.2,0.8,0.6,1.1,1,1c0.2-0.1,0.3-0.3,0.3-0.6C200,80.6,199.9,80.4,199.8,80.1
								z"/>
							<path class="st5" d="M204.3,78.7c0.1,0.4,0.2,0.8,0.1,1.2c-0.1,0.4-0.3,0.7-0.7,0.8c-0.4,0.1-0.8,0-1.1-0.3
								c-0.2-0.2-0.4-0.6-0.6-1c-0.1-0.4-0.2-0.8-0.1-1.2c0.1-0.4,0.3-0.7,0.7-0.8c0.4-0.1,0.8,0,1.1,0.3
								C203.9,77.9,204.1,78.2,204.3,78.7z M203.7,78.8c-0.1-0.3-0.2-0.5-0.3-0.7c-0.2-0.3-0.4-0.3-0.6-0.3
								c-0.2,0.1-0.3,0.3-0.4,0.6c0,0.2,0,0.5,0.1,0.7c0.2,0.8,0.6,1.1,1,1c0.2-0.1,0.3-0.3,0.3-0.6
								C203.8,79.4,203.8,79.1,203.7,78.8z"/>
							<path class="st5" d="M206.8,77.9c0.1,0.4,0.2,0.8,0.1,1.2c-0.1,0.4-0.3,0.7-0.7,0.8c-0.4,0.1-0.8,0-1.1-0.3
								c-0.2-0.2-0.4-0.6-0.6-1c-0.1-0.4-0.2-0.8-0.1-1.2c0.1-0.4,0.3-0.7,0.7-0.8c0.4-0.1,0.8,0,1.1,0.3
								C206.4,77.1,206.6,77.4,206.8,77.9z M206.2,78c-0.1-0.3-0.2-0.5-0.3-0.7c-0.2-0.3-0.4-0.3-0.6-0.3c-0.2,0.1-0.3,0.3-0.4,0.6
								c0,0.2,0,0.5,0.1,0.7c0.2,0.8,0.6,1.1,1,1c0.2-0.1,0.3-0.3,0.3-0.6C206.4,78.6,206.3,78.3,206.2,78z"/>
							<path class="st5" d="M209.3,77c0.1,0.4,0.2,0.8,0.1,1.2c-0.1,0.4-0.3,0.7-0.7,0.8c-0.4,0.1-0.8,0-1.1-0.3
								c-0.2-0.2-0.4-0.6-0.6-1c-0.1-0.4-0.2-0.8-0.1-1.2c0.1-0.4,0.3-0.7,0.7-0.8c0.4-0.1,0.8,0,1.1,0.3
								C209,76.3,209.2,76.6,209.3,77z M208.7,77.2c-0.1-0.3-0.2-0.5-0.3-0.7c-0.2-0.3-0.4-0.3-0.6-0.3c-0.2,0.1-0.3,0.3-0.4,0.6
								c0,0.2,0,0.5,0.1,0.7c0.2,0.8,0.6,1.1,1,1c0.2-0.1,0.3-0.3,0.3-0.6C208.9,77.8,208.8,77.5,208.7,77.2z"/>
							<path class="st5" d="M211.8,76.2c0.1,0.4,0.2,0.8,0.1,1.2c-0.1,0.4-0.3,0.7-0.7,0.8c-0.4,0.1-0.8,0-1.1-0.3
								c-0.2-0.2-0.4-0.6-0.6-1c-0.1-0.4-0.2-0.8-0.1-1.2c0.1-0.4,0.3-0.7,0.7-0.8c0.4-0.1,0.8,0,1.1,0.3
								C211.5,75.4,211.7,75.8,211.8,76.2z M211.3,76.4c-0.1-0.3-0.2-0.5-0.3-0.7c-0.2-0.3-0.4-0.3-0.6-0.3
								c-0.2,0.1-0.3,0.3-0.4,0.6c0,0.2,0,0.5,0.1,0.7c0.2,0.8,0.6,1.1,1,1c0.2-0.1,0.3-0.3,0.3-0.6C211.4,77,211.4,76.7,211.3,76.4
								z"/>
							<path class="st5" d="M215.7,75c0.1,0.4,0.2,0.8,0.1,1.2c-0.1,0.4-0.3,0.7-0.7,0.8c-0.4,0.1-0.8,0-1.1-0.3
								c-0.2-0.2-0.4-0.6-0.6-1c-0.1-0.4-0.2-0.8-0.1-1.2c0.1-0.4,0.3-0.7,0.7-0.8c0.4-0.1,0.8,0,1.1,0.3
								C215.3,74.2,215.5,74.6,215.7,75z M215.1,75.2c-0.1-0.3-0.2-0.5-0.3-0.7c-0.2-0.3-0.4-0.3-0.6-0.3c-0.2,0.1-0.3,0.3-0.4,0.6
								c0,0.2,0,0.5,0.1,0.7c0.2,0.8,0.6,1.1,1,1c0.2-0.1,0.3-0.3,0.3-0.6C215.3,75.7,215.2,75.5,215.1,75.2z"/>
							<path class="st5" d="M218.2,74.2c0.1,0.4,0.2,0.8,0.1,1.2c-0.1,0.4-0.3,0.7-0.7,0.8c-0.4,0.1-0.8,0-1.1-0.3
								c-0.2-0.2-0.4-0.6-0.6-1c-0.1-0.4-0.2-0.8-0.1-1.2c0.1-0.4,0.3-0.7,0.7-0.8c0.4-0.1,0.8,0,1.1,0.3
								C217.9,73.4,218.1,73.8,218.2,74.2z M217.6,74.4c-0.1-0.3-0.2-0.5-0.3-0.7c-0.2-0.3-0.4-0.3-0.6-0.3
								c-0.2,0.1-0.3,0.3-0.4,0.6c0,0.2,0,0.5,0.1,0.7c0.2,0.8,0.6,1.1,1,1c0.2-0.1,0.3-0.3,0.3-0.6
								C217.8,74.9,217.7,74.7,217.6,74.4z"/>
							<path class="st5" d="M220.7,73.4c0.1,0.4,0.2,0.8,0.1,1.2c-0.1,0.4-0.3,0.7-0.7,0.8c-0.4,0.1-0.8,0-1.1-0.3
								c-0.2-0.2-0.4-0.6-0.6-1c-0.1-0.4-0.2-0.8-0.1-1.2c0.1-0.4,0.3-0.7,0.7-0.8c0.4-0.1,0.8,0,1.1,0.3
								C220.4,72.6,220.6,72.9,220.7,73.4z M220.2,73.6c-0.1-0.3-0.2-0.5-0.3-0.7c-0.2-0.3-0.4-0.3-0.6-0.3
								c-0.2,0.1-0.3,0.3-0.4,0.6c0,0.2,0,0.5,0.1,0.7c0.2,0.8,0.6,1.1,1,1c0.2-0.1,0.3-0.3,0.3-0.6
								C220.3,74.1,220.3,73.9,220.2,73.6z"/>
							<path class="st5" d="M223.3,72.6c0.1,0.4,0.2,0.8,0.1,1.2c-0.1,0.4-0.3,0.7-0.7,0.8c-0.4,0.1-0.8,0-1.1-0.3
								c-0.2-0.2-0.4-0.6-0.6-1c-0.1-0.4-0.2-0.8-0.1-1.2c0.1-0.4,0.3-0.7,0.7-0.8c0.4-0.1,0.8,0,1.1,0.3
								C222.9,71.8,223.1,72.1,223.3,72.6z M222.7,72.8c-0.1-0.3-0.2-0.5-0.3-0.7c-0.2-0.3-0.4-0.3-0.6-0.3
								c-0.2,0.1-0.3,0.3-0.4,0.6c0,0.2,0,0.5,0.1,0.7c0.2,0.8,0.6,1.1,1,1c0.2-0.1,0.3-0.3,0.3-0.6
								C222.8,73.3,222.8,73.1,222.7,72.8z"/>
						</g>
						<path class="st5" d="M189.4,74.1l-12.1,3.9c-0.5,0.2-1.1-0.1-1.3-0.6l0,0c-0.2-0.5,0.1-1.1,0.6-1.3l12.1-3.9
							c0.5-0.2,1.1,0.1,1.3,0.6l0,0C190.2,73.4,189.9,73.9,189.4,74.1z"/>
						<g>
							<g>
								<path class="st5" d="M218.7,66.9c-0.1-0.3-0.3-0.6-0.6-0.8c-0.1-0.1-0.2,0-0.2,0.1l0,0.1c0,0.1,0,0.2,0.1,0.2
									c0.2,0.1,0.4,0.3,0.4,0.6c0.1,0.3,0.1,0.5,0,0.7c0,0.1,0,0.2,0.1,0.2l0.1,0c0.1,0,0.2,0,0.2-0.1
									C218.8,67.6,218.8,67.3,218.7,66.9z"/>
							</g>
							<g>
								<path class="st5" d="M219.5,66.7c-0.2-0.6-0.6-1-1-1.3c-0.1,0-0.2,0-0.2,0.1l0,0c0,0.1,0,0.2,0.1,0.2
									c0.4,0.2,0.7,0.6,0.9,1.1c0.2,0.5,0.1,1-0.1,1.4c0,0.1,0,0.2,0.1,0.2l0,0c0.1,0,0.2,0,0.2-0.1
									C219.6,67.9,219.7,67.3,219.5,66.7z"/>
							</g>
							<g>
								<path class="st5" d="M220.2,66.5c-0.2-0.8-0.8-1.4-1.4-1.7c-0.1,0-0.2,0-0.2,0.1l0,0c0,0.1,0,0.2,0.1,0.2
									c0.6,0.3,1,0.9,1.2,1.5c0.2,0.7,0.2,1.4-0.1,2c0,0.1,0,0.2,0.1,0.2l0,0c0.1,0,0.2,0,0.2-0.1C220.4,68,220.4,67.2,220.2,66.5
									z"/>
							</g>
							<g>
								<path class="st5" d="M220.9,66.2c-0.3-1-1-1.7-1.8-2.2c-0.1,0-0.2,0-0.2,0.1l0,0.1c0,0.1,0,0.2,0.1,0.2
									c0.7,0.4,1.3,1.1,1.6,2c0.3,0.9,0.2,1.8-0.2,2.5c0,0.1,0,0.2,0.1,0.2l0.1,0c0.1,0,0.2,0,0.2-0.1
									C221.1,68.2,221.2,67.2,220.9,66.2z"/>
							</g>
						</g>
					</g>
				</g>
				<g>
					<rect x="163.4" y="84.2" class="st13" width="26.3" height="75.9"/>
					<rect x="93.9" y="84.2" class="st14" width="69.6" height="75.9"/>
					
						<rect x="126" y="89.1" transform="matrix(-1.836970e-16 1 -1 -1.836970e-16 252.593 -4.7051)" class="st13" width="5.3" height="69.6"/>
					
						<rect x="174" y="110.8" transform="matrix(-1.836970e-16 1 -1 -1.836970e-16 300.5605 -52.6726)" class="st15" width="5.3" height="26.3"/>
					<path class="st9" d="M141.8,85c0,0,15.7-10.2,26.4-6.9l-2.2,2.1l1,3.5c0,0-11.9-3.9-25.5,2L141.8,85z"/>
					<path class="st9" d="M141,82.7c0,0-2.8-0.3-6.9-0.9c-11-1.5-31.5-4.7-35.2-7.6c-5.8-4.6,7.9-24.1,13.9-26.8
						C118.7,44.7,141,82.7,141,82.7z"/>
					<path class="st9" d="M184.5,58.4c1,4.8-43.9,25.7-43.9,25.7s0.8-2.2,2.1-5.7c0,0,0,0,0,0c4.9-12.6,16.5-41.9,20.4-41.5
						c0.4,0,0.8,0.2,1.3,0.4C170.3,39.9,183.5,53.9,184.5,58.4z"/>
					<path class="st16" d="M164.1,41.6c-2.7,4.8-21.1,36.4-21.4,36.8c4.9-12.6,16.5-41.9,20.4-41.5c0,0,0.8,0,1.3,0.4
						C165.1,37.8,165.6,38.9,164.1,41.6z"/>
					<path class="st16" d="M134.1,81.8L134.1,81.8c-11-1.5-31.5-4.7-35.2-7.6c-1.7-4.7,2.7-5.1,5.8-5.4
						C107.8,68.4,134.1,81.8,134.1,81.8z"/>
					<path class="st16" d="M132.6,84.2c0,0,2.5-5.7,7.5-6c5.2-0.3,8.1,6,8.1,6H132.6z"/>
					<rect x="91.7" y="84.2" class="st17" width="72.8" height="10.4"/>
					<rect x="164.6" y="84.2" class="st15" width="27.4" height="10.4"/>
					<path class="st9" d="M135.1,83.3c0,0-14.3-4.5-23.9-1.5c-11.1,3.4-10.4,17.1-10.4,17.1l2.6-1.1l3.5,1.7c0,0,0.6-14.5,9.6-16.5
						C124.4,81.2,135.1,83.3,135.1,83.3z"/>
					<rect x="122.5" y="84.2" class="st13" width="5.3" height="75.9"/>
				</g>
				<g>
					
						<rect x="76.4" y="61.8" transform="matrix(0.9482 -0.3178 0.3178 0.9482 -17.9072 28.6868)" class="st16" width="5.1" height="14.8"/>
					
						<rect x="63.3" y="64.8" transform="matrix(0.9482 -0.3178 0.3178 0.9482 -19.3133 26.0201)" class="st9" width="13.6" height="14.8"/>
					
						<rect x="69.7" y="65.8" transform="matrix(0.3178 0.9482 -0.9482 0.3178 116.6867 -17.0808)" class="st14" width="1" height="13.6"/>
					
						<rect x="78.6" y="67" transform="matrix(0.3178 0.9482 -0.9482 0.3178 119.922 -27.5287)" class="st18" width="1" height="5.1"/>
					<path class="st14" d="M70.6,64c0,0,3.3-3.1,6.3-3.4l-0.4,0.6l0.5,0.6c0,0-3.3,0.2-6.4,2.4L70.6,64z"/>
					<g>
						<path class="st14" d="M69.9,64.1c0,0-0.5,0.1-1.3,0.3c-2.1,0.4-6.1,1.1-7,0.8c-1.4-0.5,0-5,0.9-5.8
							C63.4,58.5,69.9,64.1,69.9,64.1z"/>
						<g>
							<path class="st14" d="M76.5,57c0.5,0.8-6.5,7.5-6.5,7.5s0-0.5,0-1.2c0,0,0,0,0,0c0.1-2.6,0.5-8.8,1.2-9c0.1,0,0.2,0,0.3,0
								C72.7,54.4,76,56.2,76.5,57z"/>
							<path class="st18" d="M71.7,55.1c-0.2,1.1-1.6,8-1.7,8.1c0.1-2.6,0.5-8.8,1.2-9c0,0,0.1-0.1,0.3,0
								C71.6,54.3,71.8,54.5,71.7,55.1z"/>
						</g>
						<path class="st18" d="M68.6,64.4L68.6,64.4c-2.1,0.4-6.1,1.1-7,0.8c-0.6-0.8,0.2-1.1,0.7-1.4C62.9,63.6,68.6,64.4,68.6,64.4z"
							/>
						<path class="st18" d="M68.5,64.9c0,0,0.1-1.2,1-1.6c0.9-0.4,1.9,0.6,1.9,0.6L68.5,64.9z"/>
					</g>
					
						<rect x="60.9" y="65.2" transform="matrix(0.9482 -0.3178 0.3178 0.9482 -17.5086 25.0337)" class="st19" width="14.2" height="2"/>
					
						<rect x="74.6" y="62.1" transform="matrix(0.9482 -0.3178 0.3178 0.9482 -16.0391 27.8208)" class="st20" width="5.4" height="2"/>
					<path class="st21" d="M68.9,64.6c0,0-2.9,0-4.5,1.2c-1.8,1.3-0.9,3.8-0.9,3.8l0.4-0.4l0.8,0.1c0,0-0.8-2.7,0.8-3.7
						C66.8,64.9,68.9,64.6,68.9,64.6z"/>
					
						<rect x="69" y="65" transform="matrix(0.9482 -0.3178 0.3178 0.9482 -19.4341 25.8365)" class="st14" width="1" height="14.9"/>
				</g>
				<g>
					<path class="st22" d="M164,92.2c0,0-1.9,1.1-0.7,3.3c0,0-1.7-0.3-2.1-0.8c0,0,0,0.2,0.1,0.3c0,0-1.6-0.4-2.1-1
						c-0.5-0.6,2-8.4,6-6.4c0,0,3.7,0.7,2.2,4.8c-1.4,4.1-0.1,4.5-0.1,4.5s-0.4,0.1-0.6,0c0,0-0.2-0.2-0.3-0.3c0,0,0,0.2,0,0.3
						c0,0-1.5-0.3-2.1-1C163.9,95.2,163.6,93,164,92.2z"/>
					<path class="st23" d="M161.2,98.8C161.2,98.8,161.2,98.8,161.2,98.8C161.2,98.8,161.2,98.8,161.2,98.8z"/>
					<path class="st23" d="M165.9,97.5c0.1,0.5,0.1,1,0.2,1.2c0.1,0.5-4.5,0.2-4.8,0.2c0.2-0.1,0.8-2.1,1-2.8
						c0.2-0.9,0.4-1.9,0.4-1.9l3.3,0.2l0.2,0c-0.1,0.4-0.2,0.9-0.3,1.3c0,0.1,0,0.1,0,0.2C165.8,96.1,165.8,96.8,165.9,97.5z"/>
					<path class="st22" d="M162.2,93.7c0,0-0.5-1.7-0.4-3c0.1-0.9,1.4-4,4.5-2.7c0,0,0.9,0.3,1.7,1.2c0.6,0.7,1.3,2-0.6,4.5
						l-0.6,0.9L162.2,93.7z"/>
					<path class="st24" d="M165.9,97.5c-2.3-0.7-3.2-3.3-3.2-3.3c1,0,2.2,0.7,3.2,1.4c0,0.1,0,0.1,0,0.2
						C165.8,96.1,165.8,96.8,165.9,97.5z"/>
					<path class="st23" d="M166.1,96.5c0,0-4.1-1-3.4-3.6c0.7-2.6,0.6-4.4,3.3-3.9c2.7,0.5,2.9,1.7,2.9,2.6
						C168.7,92.6,167.1,96.7,166.1,96.5z"/>
					<path class="st22" d="M167.8,89.5c0,0-1.9,2.7-3.8,2.7c-1.8,0-2.5-0.7-2.5-0.7s1.6-0.7,2.4-2.5
						C163.9,89.1,167.3,87.9,167.8,89.5z"/>
					<path class="st22" d="M167.4,89.7c0,0,0.7,0.9,0.7,1.6c0,0.7-0.2,2.1,0.2,2.1c0,0,1.4-1.8,0.7-3.2
						C168.3,88.7,167.4,89.7,167.4,89.7z"/>
					<path class="st22" d="M167.5,89.8c0,0-1.6,2.9-4.1,3.4c0,0,2.7-1.4,3.4-3.4C167.6,87.8,167.5,89.8,167.5,89.8z"/>
					<path class="st0" d="M165.4,94.9c0,0,0.1,0.4,0.3,0.5c0.2,0.1,0.9,0.3,1,0.2c0.1,0,0.3-0.3,0.3-0.3S166,94.9,165.4,94.9z"/>
					<path class="st23" d="M163.9,134c-0.1,0.2-0.1,0.4-0.2,0.6c-0.3,1.3-0.6,2.5-0.8,3.5c-0.2,1.3-0.3,2.3,0,2.7c1.3,1.7,0,15,0,15
						l-1.5,1.5c0,0-2.5-13.1-3.2-15.2c-0.3-0.9-0.8-4.9-1.2-9c0-0.2,0-0.4-0.1-0.6c-0.1-0.7-0.1-1.4-0.2-2.1
						c-0.4-3.9-0.6-7.2-0.6-7.2s2.7-1.9,5.1-2.1c1.4-0.1,2.8,0.3,3.5,2.1C165.8,125.7,164.8,130.2,163.9,134z"/>
					<path class="st24" d="M163.9,134c-2-1.4-4.8-4-5.8-8.2c-0.2-2.1,1.5-4.1,3.3-4.7c1.4-0.1,2.8,0.3,3.5,2.1
						C165.8,125.7,164.8,130.2,163.9,134z"/>
					<path class="st23" d="M171.2,108.6l9.8,2.5v1.1c0,0-9.8-0.1-10.4-1.2C169.9,110,171.2,108.6,171.2,108.6z"/>
					<path class="st23" d="M180.9,146.3l-0.5,1.9c0,0-13.3-6.8-15-8.2c-0.7-0.5-1.6-3.4-2.4-6.6c-1.3-4.8-2.4-10.5-2.4-10.5
						s1.9-7.1,6.8-2.8c3,2.6,2.5,7.7,2.2,11.6c-0.2,2.6-0.4,4.8,0.6,5.3c1.9,1.1,7.6,6,9.4,9.4L180.9,146.3z"/>
					<path class="st23" d="M158.5,114.6c-3.5-0.9-7.3-6.3-7.3-6.3l1-0.8c1,1.2,5.2,3.2,5.2,3.2c0-1.1,0-2.1,0.1-3
						c0.5-6.1,2.8-8.2,3.4-8.6C161,99,161,99,161,99s0,0,0,0.1c0,0.2,0,0.6,0,1.1C161.2,103.9,161.4,115.3,158.5,114.6z"/>
					<path class="st0" d="M161.2,107.2c-0.2,4.4-0.8,8.7-2.7,8.4c-2.3-0.3-2.9-2.5-3.1-4.1c-0.1-1,0-1.8,0-1.8s1.2,0,1.3-0.2
						c0.9-0.8,0.6-8.8,1.1-9.7c0.4-0.8,3.3-1.4,3.3-1.4S161.4,102.8,161.2,107.2z"/>
					<path class="st4" d="M161.2,107.2c-0.2,4.4-0.8,8.7-2.7,8.4c-2.3-0.3-2.9-2.5-3.1-4.1c0.6,0,1.6-0.2,2-0.8
						c0.6-0.9,2.4-6.5,2.4-6.5S160.5,105.4,161.2,107.2z"/>
					<path class="st0" d="M176,108.6c0.6,0.9,0.3,2.6-1,4.1c-0.8,0.9-1.9,1.4-3.8,1.1c-0.8-0.1-3-1.4-3.2-2.9c0-0.3-0.1-0.4-0.1-0.4
						s-1,1-1,1.2c0,0.1-0.1,0.8-0.1,1c0,0.1,0.1,0.6,0.1,0.6s-4.8,2.1-8.8-0.3c0,0-1.1-9.7-0.3-11.4c0.4-0.8,2.7-2.4,3.5-3.1
						c0.2-0.2,0.4-0.6,0.3-0.9c0-0.3,0.3-0.7,0.5-0.6c0.5,0.2,1.8,0.8,2.8,0.6c0.5-0.1,1.1-0.7,1.5-0.5c0.6,0.2,0,1.5,0.3,1.5
						c0.4,0,2.8,0.5,3,0.9c0.1,0.1,0.7,1.9,1.6,4.3c0,0,0,0,0,0C172.7,108.1,175,107.3,176,108.6z"/>
					<path class="st4" d="M167.8,110.4c0,0-0.1-3.7-0.4-3.7c-0.3,0-4.6,4.2-3.6,5.9C164.9,114.3,167.8,110.4,167.8,110.4z"/>
					<path class="st25" d="M171.2,125.7c0,0-1.7,0.5-4.1,0.9c-3,0.4-7.3,0.6-11.1-0.9c0,0-0.3-5.7,0.6-8.6c0.9-2.9,1.3-4.4,1.3-4.4
						s3.6,0.9,7.3,0.2c0.5-0.1,1-0.2,1.5-0.4c0,0,2.3,4.8,2.9,6.9C170.1,121.4,171.2,125.7,171.2,125.7z"/>
					<path class="st26" d="M171.2,125.7c0,0-1.7,0.5-4.1,0.9c-4.5-2.6-2.3-13.3-2.3-13.3c0.1-0.1,0.3-0.2,0.4-0.3
						c0.5-0.1,1-0.2,1.5-0.4c0,0,2.3,4.8,2.9,6.9C170.1,121.4,171.2,125.7,171.2,125.7z"/>
					<g>
						<path class="st27" d="M161.7,113.8c-2.7,0-3.8-0.9-3.9-1l-0.2-1.3c0,0,3.6,2.2,9.2,0.1l-0.1,1
							C164.5,113.4,163,113.8,161.7,113.8z"/>
					</g>
					<path class="st23" d="M181,111.1c0,0,1.8-0.9,2.5-1c0.7-0.1,1.9-0.1,1.9,0c0,0.1-1.3,0.9-1.6,1c-0.3,0.1-1,0.5-0.8,0.6
						c0.2,0.1,1.3-0.2,1.3,0c0,0.2-0.6,0.3-0.8,0.4c-0.1,0.1-0.5,0.3-1.2,0.2c-0.6-0.1-1.4-0.1-1.4-0.1V111.1z"/>
					<path class="st23" d="M152.2,107.5l-1,0.9c0,0-1.7-1.3-1.8-1.8v-0.1c0-0.5,1.1-1.7,2-1.7c0.1,0,0.2,0,0.2,0.1
						c0.5,0.3,0.5,1.6,0.5,2.2C152.2,107.3,152.2,107.5,152.2,107.5z"/>
					<path class="st28" d="M180.9,146.3l-0.5,1.9c0,0-13.3-6.8-15-8.2c-0.7-0.5-1.6-3.4-2.4-6.6c1.1,0.2,3.6,0.4,6.7-1.7
						c-0.2,2.6-0.4,4.8,0.6,5.3c1.9,1.1,7.6,6,9.4,9.4L180.9,146.3z"/>
					<path class="st22" d="M183.6,147.1C183.6,147.1,183.6,147.1,183.6,147.1c-0.1,0-0.3-0.1-0.5-0.5c-0.1-0.3-0.2-0.5-0.3-0.8
						l-0.4-0.8c-0.5-0.6-0.6-0.5-0.6-0.5s-0.1,0.2-0.3,0.4c-0.3,0.3-0.8,0.8-1.1,0.9c-0.2,0.1-0.4,0.2-0.5,0.4
						c-0.1,0.2-0.1,0.3-0.1,0.3s1,0.2,0.9,0.6c-0.2,0.9-0.1,1.1-0.1,1.1l0,0c0,0,1.6,0.9,2.2,1c0.9,0.3,1.4,0.9,1.7,1.2
						c0.1,0.1,0.3,0.2,0.5,0.1c0.2,0,0.6-0.1,0.6-0.3L183.6,147.1z"/>
					<path class="st22" d="M163,140.8c1.3,1.7,0,15,0,15l-1.5,1.5c0,0-2.5-13.1-3.2-15.2c-0.3-0.9-0.8-4.9-1.2-9
						c1.2,0.5,4.2,1.7,6.6,1.6c-0.3,1.3-0.6,2.5-0.8,3.5C162.7,139.4,162.6,140.4,163,140.8z"/>
					<path class="st22" d="M164.4,157.9l-0.8,0.4c-0.3,0.1-0.5,0.1-0.8,0.2c-0.4,0.2-0.7,0.5-0.8,0.6c-0.2,0.9-0.5,0.8-0.5,0.8
						l-3.2,0c-0.1-0.1,0.1-0.7,0.2-0.8c0.3-0.3,1.2-0.1,1.5-1.1c0.2-0.5,1.1-2.1,1.1-2.1l0,0c0,0,0.2,0,1.1,0.1
						c0.5,0.1,0.7-0.9,0.7-0.9s0.1,0,0.3,0.1c0.1,0.1,0.3,0.2,0.3,0.5c0.1,0.3,0.6,0.8,0.9,1.1c0.2,0.2,0.4,0.3,0.4,0.3
						S165.1,157.5,164.4,157.9z"/>
				</g>
				<g>
					<rect x="119.3" y="121.6" class="st29" width="13.4" height="38.6"/>
					<rect x="83.9" y="121.6" class="st25" width="35.4" height="38.6"/>
					
						<rect x="100.3" y="124.1" transform="matrix(-1.836970e-16 1 -1 -1.836970e-16 243.4013 40.1634)" class="st5" width="2.7" height="35.4"/>
					
						<rect x="124.7" y="135.1" transform="matrix(-1.836970e-16 1 -1 -1.836970e-16 267.7957 15.769)" class="st30" width="2.7" height="13.4"/>
					<path class="st26" d="M109.7,121c0,0,10.9-4.9,18.4-3.1l-1.5,1l0.8,1.8c0,0-8.4-2.2-17.9,0.5L109.7,121z"/>
					<g>
						<path class="st25" d="M107.9,120.8c0,0-1.4-0.2-3.5-0.5c-5.6-0.8-16-2.4-17.9-3.9c-2.9-2.3,4-12.3,7.1-13.6
							C96.5,101.4,107.9,120.8,107.9,120.8z"/>
						<path class="st25" d="M130,108.4c0.5,2.5-22.3,13.1-22.3,13.1s0.4-1.1,1.1-2.9c0,0,0,0,0,0c2.5-6.4,8.4-21.3,10.4-21.1
							c0.2,0,0.4,0.1,0.7,0.2C122.8,99,129.5,106.2,130,108.4z"/>
						<path class="st26" d="M119.6,99.9c-1.4,2.4-10.7,18.5-10.9,18.7c2.5-6.4,8.4-21.3,10.4-21.1c0,0,0.4,0,0.7,0.2
							C120.2,97.9,120.4,98.5,119.6,99.9z"/>
						<path class="st26" d="M104.4,120.3L104.4,120.3c-5.6-0.8-16-2.4-17.9-3.9c-0.8-2.4,1.4-2.6,3-2.7
							C91,113.5,104.4,120.3,104.4,120.3z"/>
						<path class="st25" d="M103.6,121.5c0,0,1.3-2.9,3.8-3.1c2.6-0.2,4.1,3.1,4.1,3.1H103.6z"/>
					</g>
					<rect x="82.8" y="121.6" class="st29" width="37" height="5.3"/>
					<rect x="119.9" y="121.6" class="st26" width="14" height="5.3"/>
					<path class="st26" d="M104.9,121.1c0,0-7.3-2.3-12.1-0.8c-5.6,1.8-5.3,8.7-5.3,8.7l1.3-0.5l1.8,0.8c0,0,0.3-7.4,4.9-8.4
						C99.5,120,104.9,121.1,104.9,121.1z"/>
					<rect x="98.5" y="121.6" class="st5" width="2.7" height="38.9"/>
				</g>
				<g>
					<path class="st22" d="M41.1,105.7c0,0,10,7.3,12.4,7.1c2.4-0.2,11.1-5.5,11.1-5.5l-1.8-2.2c0,0-7.8,2.9-9.3,2.1
						c-1.4-0.8-7-7.6-9.4-7.2C41.7,100.4,39.4,103.1,41.1,105.7z"/>
					<g>
						<path class="st22" d="M35.2,160.6h-3c-0.4-0.2-0.7-0.7-0.8-1.4c-0.1-1-1.2-1.5-1.5-2.3c-0.2-0.8,1-1.9,1-1.9l0.2-0.3l0.2-0.3
							l2,0.5c0,0,0,0.5,0.1,1.1c0,0.4,0,0.9,0,1.4c-0.1,1,0.3,2.2,1.2,2.4C35.3,160,35.2,160.4,35.2,160.6z"/>
						<path class="st22" d="M52.5,160.6h-6.8c-0.3-0.4-0.2-1.9-0.2-2.4c0-0.1,0-0.2,0-0.2s2.3-1.9,2.6-0.4c0,0,0,0.1,0,0.1
							c0.4,1.3,2.2,1.9,3.3,2.1C52.1,160,52.4,160.4,52.5,160.6z"/>
						<path class="st9" d="M51.2,122.6c0,0-0.4,4.4-0.8,9.7c-0.6,7.2-1.2,16.1-1.3,17.7c-0.1,2.9-0.6,7.6-0.6,7.6s-1.1,1.1-3.3,0.6
							c0,0-2-6.6-2.5-13.7c0-0.1,0-0.2,0-0.3c-0.5-7.2-1.3-22.2-1.3-22.2L51.2,122.6z"/>
						<path class="st16" d="M51.2,122.6c0,0-0.4,4.4-0.8,9.7l-7.7,12.3c0-0.1,0-0.2,0-0.3c-0.5-7.2-1.3-22.2-1.3-22.2L51.2,122.6z"
							/>
						<path class="st9" d="M49.6,123.1c0,0-6.4,16-10.6,23.5c-4.2,7.5-5.5,9.6-5.5,9.6s-2.4-1-2.6-1.6c0,0,1.6-14.5,4.4-18
							c1.6-2,3.4-8,3.5-10.1c0.1-2.1,0.6-6.2,0.6-6.2L49.6,123.1z"/>
					</g>
					<path class="st23" d="M45.4,100.3c-2.4,1.1-6.9-0.5-6.9-0.5s2.1-2,1.5-5.5l2.1,1.3l1.4,0.9c0,0,0.1,0.6,0.1,1.7
						c0,0.3,0,0.6,0,1C44.7,99.6,45.4,100.3,45.4,100.3z"/>
					<path class="st24" d="M43.5,96.5c0,0,0.1,0.6,0.1,1.7c-1.5-0.1-3.4-2.2-3.4-2.2c0.7-0.3,1.3-0.4,1.9-0.4L43.5,96.5z"/>
					<path class="st23" d="M44.3,96.4c0,0-4,1.2-4.7-1.3c-0.7-2.5-1.7-4,0.9-4.9c2.5-0.9,3.3,0,3.7,0.7C44.6,91.7,45.3,96,44.3,96.4
						z"/>
					<path class="st25" d="M51.4,121c0.1,1.2,0.2,1.9,0.2,1.9c-0.1,0.1-0.1,0.1-0.2,0.1c-0.9,0.1-3.6,0.9-5.9,1
						c-2,0-3.7-0.3-5.7-0.9c-0.3-0.1-0.9-0.3-0.9-0.6c0-0.3-0.1-0.7-0.1-1.3c-0.1-1.9-0.3-5.2-0.9-8.9c-0.1-0.7-0.2-1.4-0.3-2.1
						c-0.6-5.1-0.2-9.7,1.7-11.5c0.2-0.1,1.3,0.2,2.3,0.6c1,0.3,1.9,0.3,2.7,0l0.9,0.7c1.2,0.8,2.5,2,3.2,4c0.6,1.6,1.2,4.7,1.8,7.8
						c0.2,1.4,0.5,2.9,0.6,4.2l0,0c0,0.1,0,0.3,0.1,0.4c0,0.2,0.1,0.5,0.1,0.7C51.2,118.7,51.3,120,51.4,121z"/>
					<path class="st28" d="M39.5,94.8c0,0,0.4-0.1,0.3-0.7c-0.1-0.6-0.2-1.3,0.3-1.2s0.6,0.5,0.7,0.2c0.2-0.2,0.1-1.2,1.4-1.4
						c1.4-0.2,2,0.2,2.6-0.2c0.6-0.4,0.5-1.4,0.5-1.4s-0.1,0.4-0.4,0.5c0,0,0.9-1.6-0.5-2.5c-1.4-0.9-2.6,0-3.3,0.1
						c-1.6,0.3-2.6,0.5-3,1.6S38.4,93.9,39.5,94.8z"/>
					<path class="st22" d="M51.4,121c-0.2,0-3.6,0.6-5.9-0.9c-2.4-1.6-5.2-10.9-5.2-10.9s5.4,6,5.5,6.2c0.1,0.2,4,1.4,5.2,1.8
						C51.2,118.7,51.3,120,51.4,121z"/>
					<g>
						<g>
							
								<rect x="52.9" y="91.2" transform="matrix(0.9999 -1.422621e-02 1.422621e-02 0.9999 -1.4802 0.9519)" class="st16" width="26.6" height="26.6"/>
							
								<rect x="47.2" y="91.3" transform="matrix(0.9999 -1.422620e-02 1.422620e-02 0.9999 -1.4819 0.8713)" class="st9" width="26.6" height="26.6"/>
						</g>
						<g>
							<path class="st0" d="M50.5,99.7c0-2.5,1.7-4.6,4.3-4.6c2.6,0,4.3,1.9,4.3,4.5c0,2.5-1.7,4.6-4.3,4.6
								C52.3,104.2,50.6,102.2,50.5,99.7z M65.2,95.1l3,0L55.5,113l-3,0L65.2,95.1z M56.5,99.6c0-1.2-0.7-2.2-1.7-2.2
								c-1.1,0-1.6,1-1.6,2.3c0,1.2,0.7,2.2,1.7,2.2C55.9,101.8,56.5,100.8,56.5,99.6z M61.5,108.6c0-2.5,1.7-4.6,4.3-4.6
								c2.6,0,4.3,1.9,4.3,4.5c0,2.5-1.7,4.6-4.3,4.6C63.3,113.1,61.6,111.1,61.5,108.6z M67.5,108.5c0-1.2-0.7-2.2-1.7-2.2
								c-1.1,0-1.6,1-1.6,2.3c0,1.2,0.7,2.2,1.7,2.2C67,110.7,67.5,109.7,67.5,108.5z"/>
						</g>
					</g>
					<path class="st23" d="M60.4,118.9c-0.9,0-2-0.4-2.4-0.6c-0.6-0.3-0.9-0.6-0.9-0.6l0.1-0.6l0.1-0.7c0,0,0.1,0,0.2,0
						c0.1,0,0.3,0,0.5,0c0,0,0.3,0.1,0.5-0.1c0.2-0.2,0.7-0.4,1-0.3c0.3,0.1,1.1,0,1.1,0.1c0.1,0.3-1,0.2-1.1,0.4
						c-0.1,0.2,0,0.3,0,0.3c0,0,0,0,0,0c0.6,0.6,2.8,0.9,2.7,1.4C62.1,118.3,60.8,118.9,60.4,118.9z"/>
					<path class="st25" d="M38.7,105.6c0,0,4.9,11.4,7.1,12.4c2.2,1.1,12.2,0.2,12.2,0.2l0.1-1.9c0,0-8.6-1.7-9.5-3.1
						c-0.8-1.4-2.2-10.1-4.4-11C42,101.4,38.6,102.5,38.7,105.6z"/>
				</g>
				<g>
					<path class="st14" d="M212.3,136c-0.1,0.1-0.2,0.1-0.3,0.2c0,0-0.1,0-0.1,0.1c-0.1,0-0.2,0.1-0.3,0.1
						c-4.2,2.1-9.3,0.5-11.6-3.7c-2.2-4-1-8.8,2.6-11.4c0.3-0.2,0.6-0.4,0.9-0.6c0.1-0.1,0.2-0.1,0.3-0.2c0.1-0.1,0.2-0.1,0.3-0.2
						c0.3-0.2,0.7-0.3,1.1-0.4c0.5-0.2,1.1-0.3,1.6-0.3c1.7-0.2,3.3,0.1,4.8,0.9c1.6,0.8,2.9,2,3.8,3.7
						C217.8,128.4,216.4,133.6,212.3,136z"/>
					<g>
						<path class="st13" d="M207.8,136.6c-2.9,0-5.6-1.6-7-4.2c-1-1.9-1.3-4.1-0.7-6.1c0.6-2.1,2-3.8,3.8-4.8c1.2-0.7,2.5-1,3.9-1
							c2.9,0,5.6,1.6,7,4.2c1,1.9,1.3,4.1,0.7,6.1c-0.6,2.1-2,3.8-3.8,4.8C210.5,136.3,209.2,136.6,207.8,136.6z M207.8,121
							c-1.3,0-2.5,0.3-3.6,0.9c-1.8,1-3.1,2.6-3.6,4.5c-0.6,1.9-0.3,4,0.6,5.7c1.3,2.4,3.9,3.9,6.6,3.9c1.3,0,2.5-0.3,3.6-0.9
							c1.8-1,3.1-2.6,3.6-4.5c0.6-1.9,0.3-4-0.6-5.7C213.1,122.5,210.6,121,207.8,121z"/>
					</g>
					<polygon class="st13" points="207.8,122.7 209.6,126.3 213.5,126.8 210.7,129.6 211.3,133.6 207.8,131.7 204.3,133.6 
						204.9,129.6 202.1,126.8 206,126.3 					"/>
				</g>
				<g>
					<path class="st14" d="M217.6,114.6c-0.1,0-0.1,0.1-0.2,0.1c0,0,0,0-0.1,0c0,0-0.1,0.1-0.1,0.1c-2.4,1.2-5.3,0.3-6.6-2.1
						c-1.2-2.2-0.6-5,1.4-6.4c0.2-0.1,0.3-0.2,0.5-0.3c0.1,0,0.1-0.1,0.2-0.1c0.1,0,0.1-0.1,0.2-0.1c0.2-0.1,0.4-0.2,0.6-0.2
						c0.3-0.1,0.6-0.1,0.9-0.2c0.9-0.1,1.9,0.1,2.7,0.5c0.9,0.4,1.7,1.1,2.2,2.1C220.7,110.3,219.9,113.2,217.6,114.6z"/>
					<g>
						<path class="st13" d="M215.1,114.9c-1.7,0-3.2-0.9-4-2.3c-0.6-1.1-0.7-2.3-0.4-3.5c0.3-1.2,1.1-2.1,2.2-2.7
							c0.7-0.4,1.4-0.6,2.2-0.6c1.7,0,3.2,0.9,4,2.3c0.6,1.1,0.7,2.3,0.4,3.5c-0.3,1.2-1.1,2.1-2.2,2.7
							C216.6,114.7,215.8,114.9,215.1,114.9z M215.1,106.1c-0.7,0-1.4,0.2-2.1,0.5c-1,0.6-1.7,1.5-2,2.6c-0.3,1.1-0.2,2.2,0.4,3.2
							c0.8,1.4,2.2,2.2,3.7,2.2c0.7,0,1.4-0.2,2.1-0.5c1-0.6,1.7-1.5,2-2.6c0.3-1.1,0.2-2.2-0.4-3.2
							C218,106.9,216.6,106.1,215.1,106.1z"/>
					</g>
					<polygon class="st13" points="215.1,107 216.1,109 218.3,109.4 216.7,111 217.1,113.2 215.1,112.1 213.1,113.2 213.4,111 
						211.8,109.4 214.1,109 					"/>
				</g>
				<g>
					<path class="st6" d="M132.2,50.1c0,0-0.1,0.1-0.1,0.1c0,0,0,0,0,0c0,0-0.1,0.1-0.1,0.1c-1.5,1.5-3.9,1.6-5.5,0.2
						c-1.5-1.4-1.8-3.6-0.6-5.3c0.1-0.1,0.2-0.3,0.3-0.4c0,0,0.1-0.1,0.1-0.1c0,0,0.1-0.1,0.1-0.1c0.1-0.1,0.3-0.2,0.4-0.3
						c0.2-0.1,0.4-0.3,0.6-0.4c0.7-0.3,1.4-0.4,2.2-0.4c0.8,0.1,1.6,0.4,2.2,1C133.4,46,133.6,48.4,132.2,50.1z"/>
					<g>
						<path class="st5" d="M129.2,51.2c-0.9,0-1.7-0.3-2.4-0.9c-0.7-0.6-1.2-1.5-1.2-2.5c-0.1-1,0.3-1.9,0.9-2.6
							c0.6-0.7,1.5-1.2,2.5-1.2c1-0.1,1.9,0.3,2.6,0.9c0.7,0.6,1.2,1.5,1.2,2.5c0.1,1-0.3,1.9-0.9,2.6c-0.6,0.7-1.5,1.2-2.5,1.2
							C129.3,51.2,129.3,51.2,129.2,51.2z M129.2,44.1c-0.1,0-0.1,0-0.2,0c-0.9,0.1-1.7,0.5-2.4,1.1c-0.6,0.7-0.9,1.6-0.9,2.5
							c0.1,0.9,0.5,1.7,1.1,2.4c0.7,0.6,1.6,0.9,2.5,0.9c0.9-0.1,1.7-0.5,2.4-1.1c0.6-0.7,0.9-1.6,0.9-2.5c-0.1-0.9-0.5-1.7-1.1-2.4
							C130.8,44.5,130,44.1,129.2,44.1z"/>
					</g>
					<polygon class="st5" points="128.3,45 129.6,46.3 131.4,46 130.6,47.6 131.4,49.2 129.7,48.9 128.4,50.2 128.1,48.4 
						126.5,47.7 128.1,46.8 					"/>
				</g>
				<g>
					<path class="st6" d="M120.6,157.4c-0.1,0.1-0.1,0.2-0.2,0.2c0,0,0,0.1-0.1,0.1c-0.1,0.1-0.1,0.1-0.2,0.2
						c-2.6,2.7-7,2.9-9.8,0.3c-2.7-2.4-3.1-6.5-1.1-9.4c0.2-0.2,0.3-0.5,0.5-0.7c0.1-0.1,0.1-0.2,0.2-0.2c0.1-0.1,0.1-0.1,0.2-0.2
						c0.2-0.2,0.5-0.4,0.7-0.6c0.4-0.3,0.7-0.5,1.1-0.7c1.2-0.6,2.6-0.8,3.9-0.6c1.4,0.2,2.8,0.7,3.9,1.8
						C122.7,150.2,123,154.5,120.6,157.4z"/>
					<g>
						<path class="st5" d="M115.1,159.5c-1.6,0-3.1-0.6-4.3-1.6c-1.3-1.2-2.1-2.7-2.2-4.5c-0.1-1.7,0.5-3.4,1.6-4.7
							c1.2-1.3,2.7-2.1,4.5-2.2c1.7-0.1,3.4,0.5,4.7,1.6c1.3,1.2,2.1,2.7,2.2,4.5c0.1,1.7-0.5,3.4-1.6,4.7c-1.2,1.3-2.7,2.1-4.5,2.2
							C115.4,159.5,115.2,159.5,115.1,159.5z M115.1,146.9c-0.1,0-0.2,0-0.4,0c-1.6,0.1-3.1,0.8-4.2,2c-1.1,1.2-1.6,2.8-1.5,4.4
							s0.8,3.1,2,4.2c1.2,1.1,2.8,1.6,4.4,1.5c1.6-0.1,3.1-0.8,4.2-2c1.1-1.2,1.6-2.8,1.5-4.4c-0.1-1.6-0.8-3.1-2-4.2
							C118.1,147.4,116.6,146.9,115.1,146.9z"/>
					</g>
					<polygon class="st5" points="113.5,148.5 115.8,150.7 119,150.1 117.6,153 119.2,155.8 116,155.4 113.8,157.7 113.2,154.5 
						110.3,153.2 113.1,151.7 					"/>
				</g>
				<path class="st31" d="M221.8,160.6h-208c-0.1,0-0.2-0.1-0.2-0.2v-0.1c0-0.1,0.1-0.2,0.2-0.2h208c0.1,0,0.2,0.1,0.2,0.2v0.1
					C222.1,160.5,221.9,160.6,221.8,160.6z"/>
				<g>
					<path class="st7" d="M142.9,111.5c0,0-1,0.7-2.1,0.6c-0.8-0.1-1.6-0.8-1.6-0.9l-0.6,1.1c0,0,1.5,0.9,2.8,0.7
						c0.4-0.1,1-0.5,1.3-0.8C142.9,111.9,142.9,111.5,142.9,111.5z"/>
					<path class="st8" d="M142.9,109.1l1.6-0.7c0,0-0.2,3.4-3,4.4C141.5,112.9,143.2,110.6,142.9,109.1z"/>
				</g>
				<path class="st9" d="M154.3,149.7c0,0,0.7,0.8,1.4,0.8c0,0,0.1,0.9-0.2,1.1c0,0-1.2-0.2-1.5-0.7
					C154.1,150.9,153.8,149.9,154.3,149.7z"/>
				<g>
					<path class="st6" d="M143.1,138.6c0,0-0.6-0.8-0.6-1.7c0-0.7,0.6-1.4,0.6-1.5l-1-0.5c0,0-0.6,1.3-0.3,2.4
						c0.1,0.3,0.5,0.8,0.7,1C142.8,138.6,143.1,138.6,143.1,138.6z"/>
					<path class="st6" d="M145.1,138.4l0.7,1.3c0,0-2.9,0.1-4-2.2C141.8,137.5,143.9,138.8,145.1,138.4z"/>
				</g>
			</g>
		</g>
	</g>
	<g>
		<path d="M33.1,187h-1.7v-6.4h-2.1v-1.4h5.9v1.4h-2.1V187z"/>
		<path d="M41.7,184c0,0.5-0.1,0.9-0.2,1.3c-0.1,0.4-0.3,0.7-0.6,1s-0.6,0.5-0.9,0.6c-0.4,0.1-0.8,0.2-1.2,0.2
			c-0.4,0-0.8-0.1-1.2-0.2c-0.4-0.1-0.7-0.3-0.9-0.6s-0.5-0.6-0.6-1c-0.1-0.4-0.2-0.8-0.2-1.3c0-0.7,0.1-1.2,0.4-1.7
			c0.2-0.5,0.6-0.8,1-1c0.4-0.2,1-0.4,1.6-0.4c0.6,0,1.1,0.1,1.5,0.4c0.4,0.2,0.8,0.6,1,1C41.6,182.8,41.7,183.3,41.7,184z
			 M37.6,184c0,0.4,0,0.7,0.1,1c0.1,0.3,0.2,0.5,0.4,0.6c0.2,0.1,0.4,0.2,0.7,0.2c0.3,0,0.5-0.1,0.7-0.2c0.2-0.1,0.3-0.3,0.4-0.6
			c0.1-0.3,0.1-0.6,0.1-1c0-0.4,0-0.7-0.1-1c-0.1-0.3-0.2-0.5-0.4-0.6s-0.4-0.2-0.7-0.2c-0.4,0-0.7,0.1-0.9,0.4S37.6,183.4,37.6,184
			z"/>
		<path d="M47.6,189.6c-0.8,0-1.5-0.1-1.9-0.4c-0.4-0.3-0.7-0.7-0.7-1.2c0-0.4,0.1-0.7,0.3-0.9c0.2-0.2,0.6-0.4,1-0.5
			c-0.2-0.1-0.3-0.2-0.4-0.3c-0.1-0.2-0.2-0.3-0.2-0.5c0-0.2,0.1-0.4,0.2-0.6s0.3-0.3,0.6-0.4c-0.3-0.1-0.6-0.4-0.7-0.7
			c-0.2-0.3-0.3-0.7-0.3-1.1c0-0.4,0.1-0.8,0.3-1.1c0.2-0.3,0.5-0.5,0.8-0.7s0.8-0.2,1.3-0.2c0.1,0,0.2,0,0.4,0c0.1,0,0.3,0,0.4,0
			s0.2,0,0.2,0h2.1v0.8l-0.9,0.2c0.1,0.1,0.1,0.3,0.2,0.4c0,0.1,0.1,0.3,0.1,0.5c0,0.6-0.2,1.1-0.7,1.5s-1.1,0.5-1.9,0.5
			c-0.2,0-0.4,0-0.5,0c-0.1,0.1-0.1,0.1-0.2,0.2c0,0.1-0.1,0.1-0.1,0.2s0,0.1,0.1,0.2s0.2,0.1,0.3,0.1c0.1,0,0.3,0,0.5,0h1
			c0.7,0,1.2,0.1,1.5,0.4c0.3,0.3,0.5,0.7,0.5,1.2c0,0.7-0.3,1.2-0.9,1.6C49.6,189.4,48.7,189.6,47.6,189.6z M47.7,188.6
			c0.4,0,0.7,0,1-0.1s0.5-0.2,0.6-0.3c0.1-0.1,0.2-0.3,0.2-0.5c0-0.1,0-0.3-0.1-0.4c-0.1-0.1-0.2-0.1-0.4-0.2
			c-0.2,0-0.4-0.1-0.7-0.1h-0.8c-0.2,0-0.4,0-0.5,0.1c-0.2,0.1-0.3,0.2-0.4,0.3c-0.1,0.1-0.1,0.3-0.1,0.4c0,0.2,0.1,0.4,0.3,0.5
			C47,188.5,47.3,188.6,47.7,188.6z M48,184c0.3,0,0.5-0.1,0.7-0.3c0.1-0.2,0.2-0.4,0.2-0.8c0-0.4-0.1-0.6-0.2-0.8s-0.4-0.3-0.7-0.3
			c-0.3,0-0.5,0.1-0.7,0.3c-0.1,0.2-0.2,0.5-0.2,0.8c0,0.3,0.1,0.6,0.2,0.8C47.4,183.9,47.7,184,48,184z"/>
		<path d="M54.5,180.9c0.6,0,1,0.1,1.4,0.3c0.4,0.2,0.7,0.5,0.9,0.9c0.2,0.4,0.3,0.9,0.3,1.5v0.8h-3.9c0,0.5,0.2,0.8,0.4,1.1
			c0.3,0.3,0.6,0.4,1.1,0.4c0.4,0,0.7,0,1-0.1c0.3-0.1,0.6-0.2,1-0.4v1.3c-0.3,0.1-0.6,0.3-0.9,0.3c-0.3,0.1-0.7,0.1-1.2,0.1
			c-0.6,0-1.1-0.1-1.6-0.3c-0.5-0.2-0.8-0.6-1.1-1c-0.3-0.5-0.4-1-0.4-1.7c0-0.7,0.1-1.3,0.4-1.7c0.2-0.5,0.6-0.8,1-1
			C53.5,181,54,180.9,54.5,180.9z M54.6,182.1c-0.3,0-0.6,0.1-0.8,0.3s-0.3,0.5-0.4,1h2.3c0-0.2,0-0.5-0.1-0.6
			c-0.1-0.2-0.2-0.3-0.4-0.4C55,182.1,54.8,182.1,54.6,182.1z"/>
		<path d="M61.1,185.8c0.2,0,0.4,0,0.5-0.1c0.2,0,0.3-0.1,0.5-0.1v1.2c-0.2,0.1-0.4,0.1-0.6,0.2c-0.3,0.1-0.5,0.1-0.8,0.1
			c-0.4,0-0.7-0.1-1-0.2c-0.3-0.1-0.5-0.3-0.7-0.6s-0.2-0.7-0.2-1.2v-2.9h-0.8v-0.7l0.9-0.5l0.5-1.3h1v1.3H62v1.2h-1.7v2.9
			c0,0.2,0.1,0.4,0.2,0.5C60.7,185.8,60.9,185.8,61.1,185.8z"/>
		<path d="M68,187.1c-0.7,0-1.2-0.3-1.6-0.8c-0.4-0.5-0.6-1.3-0.6-2.3c0-1,0.2-1.8,0.6-2.3s1-0.8,1.7-0.8c0.3,0,0.5,0,0.8,0.1
			s0.4,0.2,0.6,0.3s0.3,0.3,0.4,0.4h0.1c0-0.1,0-0.3-0.1-0.5c0-0.2,0-0.5,0-0.7v-1.9h1.6v8.3h-1.3l-0.3-0.8h-0.1
			c-0.1,0.2-0.2,0.3-0.4,0.4c-0.2,0.1-0.3,0.2-0.6,0.3C68.6,187.1,68.3,187.1,68,187.1z M68.6,185.8c0.4,0,0.8-0.1,0.9-0.4
			c0.2-0.3,0.3-0.7,0.3-1.2V184c0-0.6-0.1-1-0.3-1.3s-0.5-0.5-1-0.5c-0.4,0-0.6,0.2-0.8,0.5c-0.2,0.3-0.3,0.8-0.3,1.3
			c0,0.6,0.1,1,0.3,1.3S68.2,185.8,68.6,185.8z"/>
		<path d="M75.5,180.9c0.8,0,1.4,0.2,1.8,0.5c0.4,0.3,0.6,0.9,0.6,1.6v4h-1.1l-0.3-0.8h0c-0.2,0.2-0.3,0.4-0.5,0.5
			c-0.2,0.1-0.4,0.2-0.6,0.3c-0.2,0.1-0.5,0.1-0.8,0.1c-0.4,0-0.7-0.1-0.9-0.2c-0.3-0.1-0.5-0.3-0.7-0.6c-0.2-0.3-0.2-0.6-0.2-1.1
			c0-0.6,0.2-1.1,0.7-1.4c0.4-0.3,1.1-0.5,2-0.5l1,0V183c0-0.3-0.1-0.5-0.2-0.7c-0.2-0.1-0.4-0.2-0.7-0.2c-0.3,0-0.6,0-0.9,0.1
			s-0.6,0.2-0.8,0.3l-0.5-1.1c0.3-0.2,0.7-0.3,1.1-0.4C74.7,180.9,75.1,180.9,75.5,180.9z M76.4,184.2l-0.6,0
			c-0.5,0-0.9,0.1-1.1,0.3c-0.2,0.2-0.3,0.4-0.3,0.7c0,0.3,0.1,0.4,0.2,0.5c0.1,0.1,0.3,0.2,0.6,0.2c0.3,0,0.6-0.1,0.9-0.3
			c0.2-0.2,0.4-0.5,0.4-0.9V184.2z"/>
		<path d="M80.5,178.7c0.2,0,0.5,0.1,0.6,0.2s0.3,0.3,0.3,0.6c0,0.3-0.1,0.5-0.3,0.6c-0.2,0.1-0.4,0.2-0.6,0.2
			c-0.2,0-0.5-0.1-0.6-0.2c-0.2-0.1-0.3-0.3-0.3-0.6c0-0.3,0.1-0.5,0.3-0.6C80.1,178.7,80.3,178.7,80.5,178.7z M81.3,181v6h-1.6v-6
			H81.3z"/>
		<path d="M84.7,187H83v-8.3h1.6V187z"/>
		<path d="M85.5,181h1.8l1.1,3.4c0,0.1,0.1,0.2,0.1,0.3s0,0.2,0.1,0.3c0,0.1,0,0.2,0,0.4h0c0-0.2,0.1-0.4,0.1-0.5
			c0-0.2,0.1-0.3,0.1-0.5L90,181h1.7l-2.5,6.7c-0.2,0.4-0.4,0.8-0.6,1c-0.2,0.3-0.5,0.5-0.8,0.6s-0.7,0.2-1.1,0.2
			c-0.2,0-0.3,0-0.5,0s-0.3,0-0.3-0.1v-1.3c0.1,0,0.2,0,0.3,0c0.1,0,0.2,0,0.4,0c0.2,0,0.4,0,0.6-0.1c0.2-0.1,0.3-0.2,0.4-0.4
			c0.1-0.2,0.2-0.3,0.3-0.5l0.1-0.3L85.5,181z"/>
		<path d="M98.8,180.9c0.1,0,0.2,0,0.3,0c0.1,0,0.2,0,0.3,0l-0.1,1.5c-0.1,0-0.1,0-0.2,0c-0.1,0-0.2,0-0.3,0c-0.2,0-0.4,0-0.6,0.1
			s-0.4,0.1-0.5,0.3c-0.2,0.1-0.3,0.3-0.4,0.5c-0.1,0.2-0.1,0.4-0.1,0.7v3h-1.6v-6h1.2l0.2,1H97c0.1-0.2,0.3-0.4,0.4-0.6
			c0.2-0.2,0.4-0.3,0.6-0.4C98.3,181,98.5,180.9,98.8,180.9z"/>
		<path d="M102.9,180.9c0.6,0,1,0.1,1.4,0.3c0.4,0.2,0.7,0.5,0.9,0.9c0.2,0.4,0.3,0.9,0.3,1.5v0.8h-3.9c0,0.5,0.2,0.8,0.4,1.1
			c0.3,0.3,0.6,0.4,1.1,0.4c0.4,0,0.7,0,1-0.1c0.3-0.1,0.6-0.2,1-0.4v1.3c-0.3,0.1-0.6,0.3-0.9,0.3c-0.3,0.1-0.7,0.1-1.2,0.1
			c-0.6,0-1.1-0.1-1.6-0.3c-0.5-0.2-0.8-0.6-1.1-1c-0.3-0.5-0.4-1-0.4-1.7c0-0.7,0.1-1.3,0.4-1.7c0.2-0.5,0.6-0.8,1-1
			C101.8,181,102.3,180.9,102.9,180.9z M102.9,182.1c-0.3,0-0.6,0.1-0.8,0.3s-0.3,0.5-0.4,1h2.3c0-0.2,0-0.5-0.1-0.6
			c-0.1-0.2-0.2-0.3-0.4-0.4C103.4,182.1,103.1,182.1,102.9,182.1z"/>
		<path d="M111.8,187l-0.5-2.1c0-0.1-0.1-0.3-0.1-0.6c-0.1-0.2-0.1-0.5-0.2-0.8c-0.1-0.3-0.1-0.5-0.2-0.8c-0.1-0.2-0.1-0.4-0.1-0.5
			h0c0,0.1-0.1,0.3-0.1,0.5c-0.1,0.2-0.1,0.5-0.2,0.8s-0.1,0.5-0.2,0.8s-0.1,0.4-0.1,0.6l-0.5,2.1h-1.8l-1.7-6h1.6l0.7,2.6
			c0,0.2,0.1,0.4,0.1,0.7c0,0.3,0.1,0.5,0.1,0.7s0.1,0.4,0.1,0.6h0c0-0.1,0-0.2,0-0.4c0-0.2,0.1-0.3,0.1-0.5s0.1-0.3,0.1-0.5
			c0-0.1,0-0.2,0.1-0.3l0.7-2.9h1.8l0.7,2.9c0,0.1,0.1,0.3,0.1,0.5c0,0.2,0.1,0.5,0.1,0.7c0,0.2,0,0.4,0.1,0.6h0
			c0-0.1,0-0.3,0.1-0.5c0-0.2,0.1-0.5,0.1-0.8c0-0.3,0.1-0.5,0.1-0.7l0.7-2.6h1.6l-1.7,6H111.8z"/>
		<path d="M118.7,180.9c0.8,0,1.4,0.2,1.8,0.5c0.4,0.3,0.6,0.9,0.6,1.6v4h-1.1l-0.3-0.8h0c-0.2,0.2-0.3,0.4-0.5,0.5
			c-0.2,0.1-0.4,0.2-0.6,0.3c-0.2,0.1-0.5,0.1-0.8,0.1c-0.4,0-0.7-0.1-0.9-0.2c-0.3-0.1-0.5-0.3-0.7-0.6c-0.2-0.3-0.2-0.6-0.2-1.1
			c0-0.6,0.2-1.1,0.7-1.4c0.4-0.3,1.1-0.5,2-0.5l1,0V183c0-0.3-0.1-0.5-0.2-0.7c-0.2-0.1-0.4-0.2-0.7-0.2c-0.3,0-0.6,0-0.9,0.1
			s-0.6,0.2-0.8,0.3l-0.5-1.1c0.3-0.2,0.7-0.3,1.1-0.4C117.9,180.9,118.3,180.9,118.7,180.9z M119.6,184.2l-0.6,0
			c-0.5,0-0.9,0.1-1.1,0.3c-0.2,0.2-0.3,0.4-0.3,0.7c0,0.3,0.1,0.4,0.2,0.5c0.1,0.1,0.3,0.2,0.6,0.2c0.3,0,0.6-0.1,0.9-0.3
			c0.2-0.2,0.4-0.5,0.4-0.9V184.2z"/>
		<path d="M126.2,180.9c0.1,0,0.2,0,0.3,0c0.1,0,0.2,0,0.3,0l-0.1,1.5c-0.1,0-0.1,0-0.2,0c-0.1,0-0.2,0-0.3,0c-0.2,0-0.4,0-0.6,0.1
			c-0.2,0.1-0.4,0.1-0.5,0.3c-0.2,0.1-0.3,0.3-0.4,0.5s-0.1,0.4-0.1,0.7v3h-1.6v-6h1.2l0.2,1h0.1c0.1-0.2,0.3-0.4,0.4-0.6
			c0.2-0.2,0.4-0.3,0.6-0.4S125.9,180.9,126.2,180.9z"/>
		<path d="M129.7,187.1c-0.7,0-1.2-0.3-1.6-0.8c-0.4-0.5-0.6-1.3-0.6-2.3c0-1,0.2-1.8,0.6-2.3s1-0.8,1.7-0.8c0.3,0,0.5,0,0.8,0.1
			c0.2,0.1,0.4,0.2,0.6,0.3s0.3,0.3,0.4,0.4h0.1c0-0.1,0-0.3-0.1-0.5s0-0.5,0-0.7v-1.9h1.6v8.3h-1.3l-0.3-0.8h-0.1
			c-0.1,0.2-0.2,0.3-0.4,0.4c-0.2,0.1-0.3,0.2-0.6,0.3S130,187.1,129.7,187.1z M130.3,185.8c0.4,0,0.8-0.1,0.9-0.4
			c0.2-0.3,0.3-0.7,0.3-1.2V184c0-0.6-0.1-1-0.3-1.3c-0.2-0.3-0.5-0.5-1-0.5c-0.4,0-0.6,0.2-0.8,0.5c-0.2,0.3-0.3,0.8-0.3,1.3
			c0,0.6,0.1,1,0.3,1.3S129.9,185.8,130.3,185.8z"/>
		<path d="M138.9,185.2c0,0.4-0.1,0.8-0.3,1c-0.2,0.3-0.5,0.5-0.9,0.6s-0.8,0.2-1.4,0.2c-0.4,0-0.8,0-1.1-0.1
			c-0.3-0.1-0.6-0.1-0.9-0.3v-1.3c0.3,0.1,0.7,0.3,1,0.4c0.4,0.1,0.7,0.1,1,0.1c0.3,0,0.5,0,0.7-0.1c0.1-0.1,0.2-0.2,0.2-0.4
			c0-0.1,0-0.2-0.1-0.3c-0.1-0.1-0.2-0.2-0.4-0.3c-0.2-0.1-0.5-0.2-0.9-0.4c-0.4-0.2-0.7-0.3-0.9-0.5c-0.2-0.2-0.4-0.3-0.5-0.6
			c-0.1-0.2-0.2-0.5-0.2-0.8c0-0.6,0.2-1,0.6-1.2c0.4-0.3,1-0.4,1.7-0.4c0.4,0,0.7,0,1.1,0.1c0.3,0.1,0.7,0.2,1,0.4l-0.5,1.2
			c-0.3-0.1-0.6-0.2-0.8-0.3s-0.5-0.1-0.8-0.1c-0.2,0-0.4,0-0.5,0.1c-0.1,0.1-0.2,0.2-0.2,0.3c0,0.1,0,0.2,0.1,0.3
			c0.1,0.1,0.2,0.2,0.4,0.2c0.2,0.1,0.4,0.2,0.8,0.3c0.3,0.1,0.6,0.3,0.9,0.4c0.2,0.2,0.4,0.3,0.6,0.6S138.9,184.9,138.9,185.2z"/>
		<path d="M146.4,180.9c0.7,0,1.2,0.3,1.6,0.8c0.4,0.5,0.6,1.3,0.6,2.3c0,0.7-0.1,1.2-0.3,1.7s-0.5,0.8-0.8,1s-0.7,0.4-1.2,0.4
			c-0.3,0-0.5,0-0.7-0.1c-0.2-0.1-0.4-0.2-0.5-0.3c-0.1-0.1-0.3-0.2-0.4-0.4h-0.1c0,0.1,0,0.3,0.1,0.4c0,0.1,0,0.3,0,0.4v2.4h-1.6
			V181h1.3l0.2,0.8h0.1c0.1-0.2,0.2-0.3,0.4-0.4s0.3-0.2,0.6-0.3S146.1,180.9,146.4,180.9z M145.9,182.2c-0.3,0-0.5,0.1-0.7,0.2
			c-0.2,0.1-0.3,0.3-0.4,0.5c-0.1,0.2-0.1,0.5-0.1,0.9v0.2c0,0.4,0,0.7,0.1,1c0.1,0.3,0.2,0.5,0.4,0.6c0.2,0.1,0.4,0.2,0.7,0.2
			c0.3,0,0.5-0.1,0.6-0.2c0.2-0.1,0.3-0.3,0.4-0.6c0.1-0.3,0.1-0.6,0.1-1c0-0.6-0.1-1-0.3-1.3C146.5,182.4,146.2,182.2,145.9,182.2z
			"/>
		<path d="M152.4,180.9c0.8,0,1.4,0.2,1.8,0.5c0.4,0.3,0.6,0.9,0.6,1.6v4h-1.1l-0.3-0.8h0c-0.2,0.2-0.3,0.4-0.5,0.5
			c-0.2,0.1-0.4,0.2-0.6,0.3s-0.5,0.1-0.8,0.1c-0.4,0-0.7-0.1-0.9-0.2c-0.3-0.1-0.5-0.3-0.7-0.6c-0.2-0.3-0.2-0.6-0.2-1.1
			c0-0.6,0.2-1.1,0.7-1.4c0.4-0.3,1.1-0.5,2-0.5l1,0V183c0-0.3-0.1-0.5-0.2-0.7c-0.2-0.1-0.4-0.2-0.7-0.2c-0.3,0-0.6,0-0.9,0.1
			s-0.6,0.2-0.8,0.3l-0.5-1.1c0.3-0.2,0.7-0.3,1.1-0.4C151.6,180.9,152,180.9,152.4,180.9z M153.3,184.2l-0.6,0
			c-0.5,0-0.9,0.1-1.1,0.3c-0.2,0.2-0.3,0.4-0.3,0.7c0,0.3,0.1,0.4,0.2,0.5c0.1,0.1,0.3,0.2,0.6,0.2c0.3,0,0.6-0.1,0.9-0.3
			c0.2-0.2,0.4-0.5,0.4-0.9V184.2z"/>
		<path d="M159.9,180.9c0.1,0,0.2,0,0.3,0c0.1,0,0.2,0,0.3,0l-0.1,1.5c-0.1,0-0.1,0-0.2,0c-0.1,0-0.2,0-0.3,0c-0.2,0-0.4,0-0.6,0.1
			c-0.2,0.1-0.4,0.1-0.5,0.3c-0.2,0.1-0.3,0.3-0.4,0.5s-0.1,0.4-0.1,0.7v3h-1.6v-6h1.2l0.2,1h0.1c0.1-0.2,0.3-0.4,0.4-0.6
			c0.2-0.2,0.4-0.3,0.6-0.4S159.7,180.9,159.9,180.9z"/>
		<path d="M164.1,185.8c0.2,0,0.4,0,0.5-0.1c0.2,0,0.3-0.1,0.5-0.1v1.2c-0.2,0.1-0.4,0.1-0.6,0.2c-0.3,0.1-0.5,0.1-0.8,0.1
			c-0.4,0-0.7-0.1-1-0.2c-0.3-0.1-0.5-0.3-0.7-0.6s-0.2-0.7-0.2-1.2v-2.9H161v-0.7l0.9-0.5l0.5-1.3h1v1.3h1.7v1.2h-1.7v2.9
			c0,0.2,0.1,0.4,0.2,0.5S163.9,185.8,164.1,185.8z"/>
		<path d="M167.1,178.7c0.2,0,0.5,0.1,0.6,0.2s0.3,0.3,0.3,0.6c0,0.3-0.1,0.5-0.3,0.6c-0.2,0.1-0.4,0.2-0.6,0.2
			c-0.2,0-0.5-0.1-0.6-0.2c-0.2-0.1-0.3-0.3-0.3-0.6c0-0.3,0.1-0.5,0.3-0.6S166.9,178.7,167.1,178.7z M168,181v6h-1.6v-6H168z"/>
		<path d="M172.1,187.1c-0.6,0-1.1-0.1-1.5-0.3c-0.4-0.2-0.7-0.5-1-1c-0.2-0.5-0.3-1-0.3-1.7c0-0.7,0.1-1.3,0.4-1.8
			c0.2-0.5,0.6-0.8,1-1c0.4-0.2,1-0.3,1.5-0.3c0.4,0,0.8,0,1.1,0.1c0.3,0.1,0.6,0.2,0.8,0.3l-0.5,1.3c-0.3-0.1-0.5-0.2-0.7-0.3
			c-0.2-0.1-0.4-0.1-0.7-0.1c-0.3,0-0.5,0.1-0.7,0.2c-0.2,0.1-0.3,0.3-0.4,0.6c-0.1,0.3-0.1,0.6-0.1,1c0,0.4,0,0.7,0.1,1
			c0.1,0.3,0.2,0.5,0.4,0.6c0.2,0.1,0.4,0.2,0.7,0.2c0.3,0,0.6,0,0.9-0.1s0.5-0.2,0.8-0.4v1.4c-0.3,0.2-0.5,0.3-0.8,0.3
			C172.9,187.1,172.5,187.1,172.1,187.1z"/>
		<path d="M176.1,178.7c0.2,0,0.5,0.1,0.6,0.2s0.3,0.3,0.3,0.6c0,0.3-0.1,0.5-0.3,0.6c-0.2,0.1-0.4,0.2-0.6,0.2
			c-0.2,0-0.5-0.1-0.6-0.2c-0.2-0.1-0.3-0.3-0.3-0.6c0-0.3,0.1-0.5,0.3-0.6S175.9,178.7,176.1,178.7z M176.9,181v6h-1.6v-6H176.9z"
			/>
		<path d="M182,180.9c0.7,0,1.2,0.3,1.6,0.8c0.4,0.5,0.6,1.3,0.6,2.3c0,0.7-0.1,1.2-0.3,1.7s-0.5,0.8-0.8,1s-0.7,0.4-1.2,0.4
			c-0.3,0-0.5,0-0.7-0.1c-0.2-0.1-0.4-0.2-0.5-0.3c-0.1-0.1-0.3-0.2-0.4-0.4h-0.1c0,0.1,0,0.3,0.1,0.4c0,0.1,0,0.3,0,0.4v2.4h-1.6
			V181h1.3l0.2,0.8h0.1c0.1-0.2,0.2-0.3,0.4-0.4s0.3-0.2,0.6-0.3S181.7,180.9,182,180.9z M181.4,182.2c-0.3,0-0.5,0.1-0.7,0.2
			c-0.2,0.1-0.3,0.3-0.4,0.5c-0.1,0.2-0.1,0.5-0.1,0.9v0.2c0,0.4,0,0.7,0.1,1c0.1,0.3,0.2,0.5,0.4,0.6c0.2,0.1,0.4,0.2,0.7,0.2
			c0.3,0,0.5-0.1,0.6-0.2c0.2-0.1,0.3-0.3,0.4-0.6c0.1-0.3,0.1-0.6,0.1-1c0-0.6-0.1-1-0.3-1.3C182.1,182.4,181.8,182.2,181.4,182.2z
			"/>
		<path d="M188,180.9c0.8,0,1.4,0.2,1.8,0.5c0.4,0.3,0.6,0.9,0.6,1.6v4h-1.1l-0.3-0.8h0c-0.2,0.2-0.3,0.4-0.5,0.5
			c-0.2,0.1-0.4,0.2-0.6,0.3s-0.5,0.1-0.8,0.1c-0.4,0-0.7-0.1-0.9-0.2c-0.3-0.1-0.5-0.3-0.7-0.6c-0.2-0.3-0.2-0.6-0.2-1.1
			c0-0.6,0.2-1.1,0.7-1.4c0.4-0.3,1.1-0.5,2-0.5l1,0V183c0-0.3-0.1-0.5-0.2-0.7c-0.2-0.1-0.4-0.2-0.7-0.2c-0.3,0-0.6,0-0.9,0.1
			s-0.6,0.2-0.8,0.3l-0.5-1.1c0.3-0.2,0.7-0.3,1.1-0.4C187.2,180.9,187.6,180.9,188,180.9z M188.9,184.2l-0.6,0
			c-0.5,0-0.9,0.1-1.1,0.3c-0.2,0.2-0.3,0.4-0.3,0.7c0,0.3,0.1,0.4,0.2,0.5c0.1,0.1,0.3,0.2,0.6,0.2c0.3,0,0.6-0.1,0.9-0.3
			c0.2-0.2,0.4-0.5,0.4-0.9V184.2z"/>
		<path d="M194.7,185.8c0.2,0,0.4,0,0.5-0.1c0.2,0,0.3-0.1,0.5-0.1v1.2c-0.2,0.1-0.4,0.1-0.6,0.2c-0.3,0.1-0.5,0.1-0.8,0.1
			c-0.4,0-0.7-0.1-1-0.2c-0.3-0.1-0.5-0.3-0.7-0.6s-0.2-0.7-0.2-1.2v-2.9h-0.8v-0.7l0.9-0.5l0.5-1.3h1v1.3h1.7v1.2H194v2.9
			c0,0.2,0.1,0.4,0.2,0.5S194.5,185.8,194.7,185.8z"/>
		<path d="M199.4,180.9c0.6,0,1,0.1,1.4,0.3c0.4,0.2,0.7,0.5,0.9,0.9c0.2,0.4,0.3,0.9,0.3,1.5v0.8h-3.9c0,0.5,0.2,0.8,0.4,1.1
			c0.3,0.3,0.6,0.4,1.1,0.4c0.4,0,0.7,0,1-0.1c0.3-0.1,0.6-0.2,1-0.4v1.3c-0.3,0.1-0.6,0.3-0.9,0.3c-0.3,0.1-0.7,0.1-1.2,0.1
			c-0.6,0-1.1-0.1-1.6-0.3c-0.5-0.2-0.8-0.6-1.1-1c-0.3-0.5-0.4-1-0.4-1.7c0-0.7,0.1-1.3,0.4-1.7c0.2-0.5,0.6-0.8,1-1
			S198.8,180.9,199.4,180.9z M199.4,182.1c-0.3,0-0.6,0.1-0.8,0.3c-0.2,0.2-0.3,0.5-0.4,1h2.3c0-0.2,0-0.5-0.1-0.6
			c-0.1-0.2-0.2-0.3-0.4-0.4C199.9,182.1,199.7,182.1,199.4,182.1z"/>
		<path d="M207.1,178.7c0.2,0,0.5,0.1,0.6,0.2s0.3,0.3,0.3,0.6c0,0.3-0.1,0.5-0.3,0.6c-0.2,0.1-0.4,0.2-0.6,0.2
			c-0.2,0-0.5-0.1-0.6-0.2c-0.2-0.1-0.3-0.3-0.3-0.6c0-0.3,0.1-0.5,0.3-0.6S206.8,178.7,207.1,178.7z M207.9,181v6h-1.6v-6H207.9z"
			/>
		<path d="M213,180.9c0.6,0,1.2,0.2,1.5,0.5c0.4,0.3,0.6,0.9,0.6,1.7v3.9h-1.6v-3.5c0-0.4-0.1-0.8-0.2-1c-0.2-0.2-0.4-0.3-0.7-0.3
			c-0.5,0-0.8,0.2-1,0.5c-0.2,0.3-0.3,0.8-0.3,1.5v2.8h-1.6v-6h1.2l0.2,0.8h0.1c0.1-0.2,0.3-0.4,0.5-0.5c0.2-0.1,0.4-0.2,0.6-0.3
			S212.7,180.9,213,180.9z"/>
		<path d="M104.6,199.5c0,0.9-0.2,1.6-0.5,2.2s-0.8,1-1.5,1.3c-0.6,0.3-1.4,0.4-2.3,0.4h-2.2v-7.8h2.5c0.8,0,1.5,0.1,2.1,0.4
			c0.6,0.3,1.1,0.7,1.4,1.3C104.4,198,104.6,198.7,104.6,199.5z M102.8,199.6c0-0.6-0.1-1.1-0.3-1.4c-0.2-0.4-0.4-0.6-0.7-0.8
			c-0.3-0.2-0.7-0.3-1.2-0.3h-0.9v5.1h0.7c0.8,0,1.4-0.2,1.8-0.6C102.6,201.1,102.8,200.4,102.8,199.6z"/>
		<path d="M108.5,197.4c0.8,0,1.4,0.2,1.8,0.5c0.4,0.3,0.6,0.9,0.6,1.6v4h-1.1l-0.3-0.8h0c-0.2,0.2-0.3,0.4-0.5,0.5
			c-0.2,0.1-0.4,0.2-0.6,0.3c-0.2,0.1-0.5,0.1-0.8,0.1c-0.4,0-0.7-0.1-0.9-0.2c-0.3-0.1-0.5-0.3-0.7-0.6c-0.2-0.3-0.2-0.6-0.2-1.1
			c0-0.6,0.2-1.1,0.7-1.4c0.4-0.3,1.1-0.5,2-0.5l1,0v-0.3c0-0.3-0.1-0.5-0.2-0.7c-0.2-0.1-0.4-0.2-0.7-0.2c-0.3,0-0.6,0-0.9,0.1
			s-0.6,0.2-0.8,0.3l-0.5-1.1c0.3-0.2,0.7-0.3,1.1-0.4C107.7,197.5,108.1,197.4,108.5,197.4z M109.4,200.8l-0.6,0
			c-0.5,0-0.9,0.1-1.1,0.3c-0.2,0.2-0.3,0.4-0.3,0.7c0,0.3,0.1,0.4,0.2,0.5c0.1,0.1,0.3,0.2,0.6,0.2c0.3,0,0.6-0.1,0.9-0.3
			c0.2-0.2,0.4-0.5,0.4-0.9V200.8z"/>
		<path d="M113.5,195.2c0.2,0,0.5,0.1,0.6,0.2s0.3,0.3,0.3,0.6c0,0.3-0.1,0.5-0.3,0.6c-0.2,0.1-0.4,0.2-0.6,0.2
			c-0.2,0-0.5-0.1-0.6-0.2c-0.2-0.1-0.3-0.3-0.3-0.6c0-0.3,0.1-0.5,0.3-0.6C113,195.3,113.2,195.2,113.5,195.2z M114.3,197.6v6h-1.6
			v-6H114.3z"/>
		<path d="M117.6,203.5H116v-8.3h1.6V203.5z"/>
		<path d="M118.5,197.6h1.8l1.1,3.4c0,0.1,0.1,0.2,0.1,0.3s0,0.2,0.1,0.3c0,0.1,0,0.2,0,0.4h0c0-0.2,0.1-0.4,0.1-0.5
			c0-0.2,0.1-0.3,0.1-0.5l1.1-3.4h1.7l-2.5,6.7c-0.2,0.4-0.4,0.8-0.6,1c-0.2,0.3-0.5,0.5-0.8,0.6s-0.7,0.2-1.1,0.2
			c-0.2,0-0.3,0-0.5,0s-0.3,0-0.3-0.1v-1.3c0.1,0,0.2,0,0.3,0c0.1,0,0.2,0,0.4,0c0.2,0,0.4,0,0.6-0.1c0.2-0.1,0.3-0.2,0.4-0.4
			c0.1-0.2,0.2-0.3,0.3-0.5l0.1-0.3L118.5,197.6z"/>
		<path d="M131,195.7c1,0,1.7,0.2,2.2,0.7c0.5,0.4,0.7,1,0.7,1.8c0,0.3-0.1,0.7-0.2,1c-0.1,0.3-0.3,0.6-0.5,0.8
			c-0.2,0.2-0.5,0.4-0.9,0.6s-0.9,0.2-1.4,0.2h-0.7v2.8h-1.7v-7.8H131z M131,197.1h-0.8v2.3h0.5c0.3,0,0.6,0,0.8-0.1
			c0.2-0.1,0.4-0.2,0.5-0.4c0.1-0.2,0.2-0.4,0.2-0.7c0-0.4-0.1-0.7-0.3-0.9C131.7,197.2,131.4,197.1,131,197.1z"/>
		<path d="M140.7,200.5c0,0.5-0.1,0.9-0.2,1.3c-0.1,0.4-0.3,0.7-0.6,1s-0.6,0.5-0.9,0.6c-0.4,0.1-0.8,0.2-1.2,0.2
			c-0.4,0-0.8-0.1-1.2-0.2c-0.4-0.1-0.7-0.3-0.9-0.6s-0.5-0.6-0.6-1c-0.1-0.4-0.2-0.8-0.2-1.3c0-0.7,0.1-1.2,0.4-1.7
			c0.2-0.5,0.6-0.8,1-1c0.4-0.2,1-0.4,1.6-0.4c0.6,0,1.1,0.1,1.5,0.4c0.4,0.2,0.8,0.6,1,1C140.6,199.3,140.7,199.9,140.7,200.5z
			 M136.6,200.5c0,0.4,0,0.7,0.1,1c0.1,0.3,0.2,0.5,0.4,0.6c0.2,0.1,0.4,0.2,0.7,0.2c0.3,0,0.5-0.1,0.7-0.2c0.2-0.1,0.3-0.3,0.4-0.6
			c0.1-0.3,0.1-0.6,0.1-1c0-0.4,0-0.7-0.1-1s-0.2-0.5-0.4-0.6c-0.2-0.1-0.4-0.2-0.7-0.2c-0.4,0-0.7,0.1-0.9,0.4
			C136.7,199.5,136.6,199.9,136.6,200.5z"/>
		<path d="M143.7,203.5h-1.6v-8.3h1.6V203.5z"/>
		<path d="M147,203.5h-1.6v-8.3h1.6V203.5z"/>
	</g>
	<g>
		<linearGradient id="SVGID_1_" gradientUnits="userSpaceOnUse" x1="45.8643" y1="235.0369" x2="199.1357" y2="235.0369">
			<stop  offset="0" style="stop-color:#2FEEE9"/>
			<stop  offset="1" style="stop-color:#007176"/>
		</linearGradient>
		<path class="st32" d="M181.5,252.7h-118c-9.8,0-17.7-7.9-17.7-17.7v0c0-9.8,7.9-17.7,17.7-17.7h118c9.8,0,17.7,7.9,17.7,17.7v0
			C199.1,244.8,191.2,252.7,181.5,252.7z"/>
		<g>
			<path class="st0" d="M101.5,234.8c0,1.1-0.2,2-0.6,2.7c-0.4,0.7-1,1.3-1.8,1.6c-0.8,0.4-1.7,0.6-2.8,0.6h-2.7v-9.7h3
				c1,0,1.9,0.2,2.6,0.5c0.7,0.4,1.3,0.9,1.7,1.6C101.3,232.9,101.5,233.8,101.5,234.8z M99.9,234.9c0-0.8-0.1-1.4-0.4-2
				c-0.2-0.5-0.6-0.9-1.1-1.1c-0.5-0.2-1.1-0.4-1.8-0.4h-1.4v7h1.1c1.2,0,2-0.3,2.6-0.9S99.9,236,99.9,234.9z"/>
			<path class="st0" d="M106.3,232.3c0.9,0,1.6,0.2,2.1,0.6c0.5,0.4,0.7,1,0.7,1.9v4.9H108l-0.3-1h-0.1c-0.2,0.3-0.4,0.5-0.6,0.7
				s-0.5,0.3-0.8,0.4c-0.3,0.1-0.6,0.1-1.1,0.1c-0.4,0-0.8-0.1-1.2-0.2c-0.3-0.2-0.6-0.4-0.8-0.7c-0.2-0.3-0.3-0.7-0.3-1.3
				c0-0.8,0.3-1.3,0.8-1.7c0.6-0.4,1.4-0.6,2.5-0.6l1.3,0v-0.4c0-0.5-0.1-0.9-0.4-1.1s-0.6-0.3-1-0.3c-0.4,0-0.7,0.1-1.1,0.2
				c-0.3,0.1-0.7,0.2-1,0.4l-0.5-1.1c0.4-0.2,0.8-0.3,1.2-0.5S105.8,232.3,106.3,232.3z M107.6,236.2l-0.9,0c-0.8,0-1.3,0.2-1.6,0.4
				c-0.3,0.2-0.5,0.6-0.5,1c0,0.4,0.1,0.6,0.3,0.8s0.5,0.2,0.9,0.2c0.5,0,1-0.2,1.3-0.5s0.5-0.8,0.5-1.4V236.2z"/>
			<path class="st0" d="M112.1,229.6c0.2,0,0.4,0.1,0.6,0.2c0.2,0.1,0.3,0.3,0.3,0.7c0,0.3-0.1,0.5-0.3,0.7s-0.4,0.2-0.6,0.2
				c-0.2,0-0.5-0.1-0.6-0.2s-0.3-0.3-0.3-0.7c0-0.3,0.1-0.5,0.3-0.7C111.6,229.7,111.8,229.6,112.1,229.6z M112.8,232.4v7.3h-1.6
				v-7.3H112.8z"/>
			<path class="st0" d="M116.6,239.7h-1.6v-10.3h1.6V239.7z"/>
			<path class="st0" d="M117.7,232.4h1.7l1.5,4.2c0.1,0.2,0.1,0.4,0.2,0.6c0.1,0.2,0.1,0.4,0.1,0.5c0,0.2,0.1,0.4,0.1,0.5h0
				c0-0.2,0.1-0.5,0.2-0.8s0.2-0.6,0.3-0.9l1.4-4.2h1.7l-3.1,8.3c-0.2,0.5-0.4,0.9-0.7,1.2c-0.3,0.3-0.6,0.6-0.9,0.8
				s-0.8,0.3-1.2,0.3c-0.2,0-0.4,0-0.6,0c-0.2,0-0.3,0-0.4-0.1v-1.2c0.1,0,0.2,0,0.3,0.1c0.1,0,0.3,0,0.4,0c0.3,0,0.5-0.1,0.7-0.2
				c0.2-0.1,0.4-0.3,0.5-0.5c0.1-0.2,0.3-0.4,0.4-0.7l0.3-0.7L117.7,232.4z"/>
			<path class="st0" d="M132.5,230.1c1.2,0,2.2,0.3,2.7,0.8s0.9,1.2,0.9,2.1c0,0.4-0.1,0.8-0.2,1.2c-0.1,0.4-0.3,0.7-0.6,1
				c-0.3,0.3-0.7,0.5-1.2,0.7c-0.5,0.2-1.1,0.3-1.8,0.3h-1v3.6h-1.6v-9.7H132.5z M132.4,231.4h-1.1v3.4h0.9c0.5,0,0.9-0.1,1.3-0.2
				c0.3-0.1,0.6-0.3,0.8-0.6c0.2-0.3,0.3-0.6,0.3-1c0-0.6-0.2-1-0.5-1.2C133.7,231.5,133.2,231.4,132.4,231.4z"/>
			<path class="st0" d="M144.4,236.1c0,0.6-0.1,1.1-0.2,1.6c-0.2,0.5-0.4,0.9-0.7,1.2c-0.3,0.3-0.7,0.6-1.1,0.7
				c-0.4,0.2-0.9,0.3-1.4,0.3c-0.5,0-1-0.1-1.4-0.3c-0.4-0.2-0.8-0.4-1.1-0.7c-0.3-0.3-0.5-0.7-0.7-1.2c-0.2-0.5-0.3-1-0.3-1.6
				c0-0.8,0.1-1.5,0.4-2s0.7-1,1.2-1.3s1.1-0.4,1.9-0.4c0.7,0,1.3,0.1,1.8,0.4s0.9,0.7,1.2,1.3C144.2,234.6,144.4,235.3,144.4,236.1
				z M139.1,236.1c0,0.5,0.1,1,0.2,1.4s0.3,0.7,0.6,0.9c0.3,0.2,0.6,0.3,1.1,0.3s0.8-0.1,1.1-0.3c0.3-0.2,0.5-0.5,0.6-0.9
				s0.2-0.8,0.2-1.4c0-0.5-0.1-1-0.2-1.4s-0.3-0.7-0.6-0.9c-0.3-0.2-0.6-0.3-1.1-0.3c-0.6,0-1.1,0.2-1.4,0.6
				S139.1,235.3,139.1,236.1z"/>
			<path class="st0" d="M147.7,239.7h-1.6v-10.3h1.6V239.7z"/>
			<path class="st0" d="M151.5,239.7h-1.6v-10.3h1.6V239.7z"/>
		</g>
	</g>
</g>
</svg>
