<?xml version="1.0" encoding="utf-8"?>
<!-- Generator: Adobe Illustrator 22.0.0, SVG Export Plug-In . SVG Version: 6.00 Build 0)  -->
<svg version="1.1" id="Layer_1" xmlns="http://www.w3.org/2000/svg" xmlns:xlink="http://www.w3.org/1999/xlink" x="0px" y="0px"
	 viewBox="0 0 123.9 123.9" style="enable-background:new 0 0 123.9 123.9;" xml:space="preserve">
<style type="text/css">
	.st0{fill:#202020;}
	.st1{fill:#054B84;}
</style>
<title>Artboard 9 copy 32</title>
<g>
	<g>
		<g>
			<g>
				<path class="st0" d="M97.7,54.6L81.1,77.2c-4.3,0.1-8.3,0.9-11.9,2.5c-8,3.2-14.6,9.2-18.5,16.9c-2.4,4.8-3.7,10.2-3.7,15.8
					c0,3.8,0.6,7.5,1.8,11H23.4c-0.6-3.5-1-7.3-1-11c0-5.7,0.8-11.2,2.3-16.5c3.9-13.9,12.9-25.7,24.7-33.5
					c9.4-6.1,20.6-9.8,32.8-9.8C87.5,52.6,92.7,53.3,97.7,54.6z"/>
			</g>
		</g>
		<g>
			<path class="st1" d="M49.4,0.6v52.2c-10.1,5.6-18.5,13.6-24.6,23.3l0.1-42.2L49.4,0.6z"/>
		</g>
		<g>
			<path class="st1" d="M101.5,123.2H70.7L56.4,104l0,0c2.7-8.4,9.3-15,17.8-17.6L101.5,123.2z"/>
		</g>
	</g>
</g>
</svg>
